<mxfile host="app.diagrams.net" modified="2023-12-03T22:08:28.473Z" agent="Mozilla/5.0 (Windows NT 10.0; Win64; x64) AppleWebKit/537.36 (KHTML, like Gecko) Chrome/119.0.0.0 Safari/537.36 Edg/119.0.0.0" etag="oZoiBHDXpEuNxVROWxRv" version="22.1.5" type="device" pages="2">
  <diagram name="Страница — 1" id="o3sYmgAIau1fM3dsohi6">
    <mxGraphModel dx="378" dy="195" grid="1" gridSize="10" guides="1" tooltips="1" connect="1" arrows="1" fold="1" page="1" pageScale="1" pageWidth="3300" pageHeight="2339" math="0" shadow="0">
      <root>
        <mxCell id="0" />
        <mxCell id="1" parent="0" />
        <mxCell id="WYAKC0gn2XXZuo2VXs9e-28" value="" style="shape=image;imageAspect=0;verticalLabelPosition=bottom;verticalAlign=top;image=data:image/png,iVBORw0KGgoAAAANSUhEUgAAA5AAAALoCAYAAAAOSho8AAAAAXNSR0IArs4c6QAACg90RVh0bXhmaWxlACUzQ214ZmlsZSUyMGhvc3QlM0QlMjJhcHAuZGlhZ3JhbXMubmV0JTIyJTIwbW9kaWZpZWQlM0QlMjIyMDIzLTEyLTAxVDAxJTNBMzIlM0E1OS4xNTVaJTIyJTIwYWdlbnQlM0QlMjJNb3ppbGxhJTJGNS4wJTIwKFdpbmRvd3MlMjBOVCUyMDEwLjAlM0IlMjBXaW42NCUzQiUyMHg2NCklMjBBcHBsZVdlYktpdCUyRjUzNy4zNiUyMChLSFRNTCUyQyUyMGxpa2UlMjBHZWNrbyklMjBDaHJvbWUlMkYxMTkuMC4wLjAlMjBTYWZhcmklMkY1MzcuMzYlMjBFZGclMkYxMTkuMC4wLjAlMjIlMjBldGFnJTNEJTIyZk1VanljdHZFMTJGbVgyR0JSRTQlMjIlMjB2ZXJzaW9uJTNEJTIyMjIuMS41JTIyJTIwdHlwZSUzRCUyMmRldmljZSUyMiUyMHBhZ2VzJTNEJTIyMiUyMiUzRSUzQ2RpYWdyYW0lMjBpZCUzRCUyMlkweTNjS3YtNEEyYUlNSElhMGtpJTIyJTIwbmFtZSUzRCUyMlBhZ2UtMSUyMiUzRTdadGRtNW82RUlCJTJGRFplN0QwbVFqMHNVOXVPY3F1ZHgyYmEzVkxMS2N4QThHS3ZiWDk4UWlJQkpXOW9TcmU3eEFuRUlBZDZaRERQSnFLSFJhbiUyQmZoJTJCdmxPSXR3b2tFOTJtdkkweUJFd05McFZ5RjVMU1VRNlpWa2tjZFJLUU8xNENuJTJCZ2lzaGI3YU5JN3hwTlNSWmxwQjQzUmJPc3pURmM5S1NoWG1lN2RyTlhyS2tmZFYxdU1DQzRHa2VKcUwwUXh5UlpTbTFCM290ZjhEeFlzbXZEUGp6clVMZXVCSnNsbUdVN1JvaTVHdG9sR2NaS2ZkVyUyQnhGT0NucWNTM25lM1RlT0htNHN4eW5wY2dJc1QlMkZnY0p0dnEyYXI3SXElMkY4WWZOc20wYTRhSzlyYUxoYnhnUSUyRnJjTjVjWFJIOVV0bFM3Sks2QzlBZDhYclY3ZjBHZWNFN3h1aTZuN3VjYmJDSkglMkJsVGFxak53Tk9xektQRzJSV2dsME4yJTJCRzJzR3lBdG94S0dGWUtYaHg2cnhuUW5RcURIQW02S2lRSDAlMkZzZEpNWUZJSUgyS1luWWc1NlJiRWllJTJGWXRIV1pMbFZCTGhsM0NiMEJzZXZtUXBxUndnZ0tlMEpsc1pPbE5BOSUyRnprMHklMkZkRFRUa0NoanBVNUh2c1VxekZCZWc0aVE1RW9WSnZFanB6emxsaGFsOFdEQ0txUnQzcXdPck9JcUt5MGlWMDFiZjJmUmdTdlNBJTJCbENEZGNFV2JNQU81QlNhc0Myd2M1JTJCRGglMkJtTTJhJTJCdVVWd3UydzdMcmFWUlFuWlRBdGpXWjNMSXRoYVQyR3pyVnZ0bFYwN1pJVVZpTXFDZmNycTNJQXlsJTJCZCUyQjJDQldHRHhsaFFkWkR0bG5IaEJvJTJCS1hDTnc1U0dJcXNDOUtHbGd2R1Y0QmZ5NTQydVRqWUNaRGJTUnhSaE80S0plRzdnbHdZQ3dTMEF0JTJGUWJ2Umx0SEtCJTJCVnhzQXFOR0dvd3ZhJTJCR2MyJTJGY3NmQmZXSXJZZVolMkZ2JTJCNCUyQnFseEJTU2F0QlM5dGh3Z2FITG12MmRhTk1OVlFTRDl0Rm16UjlXUFJkQjRlOE1PT2JlRFkzVlpYTlFhZW9vY29kTjNpdGsxem1qcVNpdW1HSXBQVDFoQkYyOEdCeUpSTHZzdG9uMW5xS2VNM0VSeVNEUkdaZVQ2VG1UUFMwN2lkNVdSdSUyQlI4VnlCM1NOOVBRVTVNZHklMkJIbkhuODdwQzVPVjFDcnBjMHl4RlQxQSUyRlQyZCUyQlBrJTJGdlRFRHg2dGZkaWlxQURVV0Nyc2tVeGIlMkZWbTdsMXdSVGdsYnhOMU9NVWNiJTJCYVBwdU94UCUyRkY4NzRxZ3lnSjhWVkFQbnFPWnF6MFAzejJPM09CeE9ya2VxcktYa0VLcVl0NTBxU2l0TGpNSmhpU2Q2UWZrdWZLWkU0Q1VPVTkxSU0lMkJWeHB3QXBNeGhxZ041cnF4R1BVaXBqMVFIVWt4eVpyN3IlMkJUTUI1OVd1U1hYeHJiSVZxWDc0aTZrU216TiUyRk0lMkZTaHVDQUlKWE4xNmhRZ0JyUjgwV216RHRPV0Z2aThkNEhoWnNNNGxFc2I2NzNXWEpuaWExV3V6cnVpdDFIMnhoZXhMaVFiJTJGdlhBbzVkcyUyQkRCRDI5RE9hRG9KJTJGSSUyQktsczMlMkZ5Qm50VGtxd1pGRjBMeXFRUk5GczZjaFVic1VRaUhQYWQlMkJ6VFU0TFNwYUJHdWx6YWszV2ZJYTVXelJSWVAwWUtGVG9NTVRDY1REMyUyRk1vcHNqQk9hdGFvYW0wUE8zOVRBODNoNEVSRmxUd3JvTWdaTVJ4WCUyRmMweSUyQkcycWRDa0p0b0YyTDklMkZwNUFZcFQ4c0ZqOE82TiUyQlJRRXolMkJsVHhFbjhudzdTNFRlQ2RGWUJZN0I2Tk1ScTBEeGVqMFlsSnE5UW8lMkZ0M1dyTktwaTZmR1Jwc08yb1VzM21OMDBDajRFMXZ5SFZlRGtlM3NGRW01elg2R1JTWHJEb1JPMlFOcWt0VFNmdlpPcVVkMTJ1dXNNNGl1YyUyQlFURkFoV2NuT0wxU0EwSiUyRjElMkZ4ZllzY2JmUUpEJTJGRlElM0QlM0QlM0MlMkZkaWFncmFtJTNFJTNDZGlhZ3JhbSUyMGlkJTNEJTIyc3RtZGhIZ2xlX3NMNEhhakpCakglMjIlMjBuYW1lJTNEJTIyJUQwJUExJUQxJTgyJUQxJTgwJUQwJUIwJUQwJUJEJUQwJUI4JUQxJTg2JUQwJUIwJTIwJUUyJTgwJTk0JTIwMiUyMiUzRW5aS3hEb0l3RUlhZnBudnRFYUtyRlhWeFluQnVhSVVtaFNPbEJ2VHBCUXRpdzBBMGFkTGslMkI3JTJGY1hTOGx3TXZ1WkVWZFhGQXFReGlWSFlFRFlXd1RzNmklMkZCdkx3WkJ0UkQzS3I1U2pOSU5WUE5jSkp1MnVwbWtCMGlNYnBPb1FaVnBYS1hNQ0V0ZGlHMmcxTjJMVVd1VnFBTkJObVNhOWF1c0pUQUVybjRLeDBYb3l0JTJCMmpuazFKTTlxZzJoWkRZZmlGSUNJc0pnMDRRMkpPQmhRZTRSWFNyMmlTWEhWZG0yUDYwV04lMkYzJTJCSCUyQkJ6JTJCT3RxdHh2TllIMzFzcjRieWY0T1pDOEFBJTNEJTNEJTNDJTJGZGlhZ3JhbSUzRSUzQyUyRm14ZmlsZSUzRcdMvzwAACAASURBVHhe7N1/sH1VXT/+TU2mhmBMkzhAUzApMQkqWUGkJYL1hw1IEP5CQANEYDSEIRAs8Aejkg0iP9SQABUllamZTAh/hWCRP5AidYQsQNCZUFGasnHe33ntr+t+1t3vfe459969zj1n7ceZacL3PWftvR5r7bPPc6+1196h8SJAgAABAgQIECBAgAABAjMI7DDDe7yFAAECBAgQIECAAAECBAg0ESC3cSBAgAABAgQIECBAgAABAlMEdmgD5LZtMuRGu8oOO+wQgBv9uM8RIEBgokB8v8zj5TtsHsq2sVUCztNbJb+c2x1bfxlbfZezVy7OXv/od4kAudkmceBtVtDnCRCYJCBA6hsENi/gPL15wzGVMLb+Mrb6jqkvl6irADmQqgNvIEjFECCwnYAAqVMQ2LyA8/TmDcdUwtj6y9jqO6a+XKKuAuRAqg68gSAVQ4CAAKkPECgg4DxdALXiIsfWX8ZW34q77lyqJkAOxOzAGwhSMQQICJD6AIECAs7TBVArLrKvv7zlLW9pzjzzzFW1Puyww5qrrrqq2XnnnVf9+yte8YrmwQcfXPnbhz/84eaII47oFfvQhz7U3H333duVHW8+6aSTmssuu6y4dLe+3f1985vf3Jxxxhmr9mOt99x7771tfffff/9V+x+G99xzT3PhhRc2xx57bHPDDTdsV7cwfcMb3tD+/fbbb1/197322qu55pprmgceeKD1iv8+4IAD2vfcdtttzUte8pIm9vWmm25qLr/88u3KfsYzntGE9x577FHctOYNCJADta4T00CQiiFAQIDUBwgUEHCeLoBacZGTAuStt966KjB2g2IKMhFi4hUhJwWcxBWfiVceDCNYdcueJ29e3wiGeTj77ne/24a5Aw88cCVExv5ef/31K2EsvWfXXXdt65UC5EMPPbQq5KUAmdc9gt9pp53WXHzxxStW6fNnnXVW8/znP7+XIjeLN3T3Mf5tlnLm6VzLtgTIgVrSiWkgSMUQICBA6gMECgg4TxdArbjIWQNkX0CJYJNeMdrWHUFc5ADZFxZTKD7vvPOaK6+8sq3a8ccf35x//vmrwnFYpH/ffffd2/+OQPn9739/JXQPGSDzfY196gvg3fbJ97Eb7CvuzoNXTYAciLTvi6bvqtSkKyHrHdLvXpHpOyBnmVrQnRowaSpGlynq1p0aMO9pAemLI5/+0DfFYqAmLlJM9ypfvpFZpo8U2SmFLpzAPBfRiWN7zz33XLnKnKYEnXjiiav+Lb9a3D0Wu98FqYyYopW/8qlZfT+o4t9iGlJMUbr66qtX9qtvn6Lc7r7X8B2xcJ1xiXeo7zydzslrnQsn9d9uP++OwCSqvs+naXjpB2zfOTU+n85pfX/vlrHETbOQuz5rgOx+90Q/OOWUU5qTTz65iRCVvivzKZOLHCD7RgO7DRS/T+J7uTt1Nw90Rx99dBsgY9prBOiYWhojiUMGyBRso+x45dNZ0z4bgSxzeAmQA7l2v2jiAOybvjAtQG50SL97QM46tSAPopOuOvURTfry67vSNhDxdsW85jWvaefXL+sVpHSSiYrtu+++q+4tmGX6SClX5S6ewDwDZPe7JPrim970pmbvvfduLrnkkvY+n/zHw8MPP9weh0ceeeRKH+7231mmJ3W/U7oX4PJwmH6Q77LLLqvuZcnf03f/jR8Si9e357lHawXItc6Fs/ygjnqk4yL+O6bipcDQ9/nuMdJ3Ts1tFjFwzLPttmJbGw2Q0d6XXnrpyvdltN0hhxyyahrmpPbs3l8Z9Y779SZN4RzSJdU39j+NNE66T3BSgMzDdAqQMUoZ9yvGPY9Rl+uuu669B3LW37vTBjrSb9fYdt+9qL73h+wl/6+siQFy0hdm9wpv94bifASo72bj2HS66ryem5HTLvdd4Zt05W6eI2LdL5pJ0xfmESAnDc93pxbEj761RjLX+hLp+/LLv1BuvvnmVTeLpy/A/Eps6gdpO/vtt19z0UUXNd2rqnk/SX+Lq3p/8Rd/0Xzzm99cGQnN+1535CG2H6/uDezRR+KL/fGPf/zKj9/Ux0844YSVq4gRUvNjIspKJ4ioa3wxxhdX/NCOq47d9/eF3HSSiStnUceYFhJf1rNMH3Hzd5kvxEUtdZ4Bsnvcx/EQFzji+E7TldL3W1xZ7ruaHI75v89yPsm/U/ruBeoGyPiBs+OOO7bTo9IPkfw9k+4nmrS/i9r29ms4gVkD5Kz9t7tnKSjEqHl3FL97f1f6oR3/P/rvRgLkLD/0h9MbX0mzBsjuObvvt213IZxFvCCQB8i+/pr3gPUGyPgNlL6fo5z1BMi17oFMx+qNN97Y7t6hhx663UI/AmSZY3dTAbI7ypUaKV2JnnZD8KQfCfmqVd1qT7rCF+/byk6Sf9GsNX1hHgFy1qkF3QC52RHI9IV4zDHHrLoZOrVzXJGNL6UITAcffPBKOIu2i3+LIBcn0rxfpHCWVszKtxGfSdPquq756EWUkd8M3vXJfwznV8+6ATKfTpcC5Bvf+Mbm7LPPbkPjPvvssypw5u/vC5D5dvMrlLNe7S7zlaDURRSYZ4DMv7/yPh1TSOMYjWM3FipIx3H67+4V8jjO0hXn++67b+oCCenYjh/e+cIMqT36AuQFF1zQnHvuuSvBNr/407eYwiK2rX2an8CsAbJ7LpzlOznOQelHd/T3fARq0ufzc1H8SE5hsk9kEQPH/Fpua7Y0a4DMf3/ERenub6u+i/qL2J6pvpN+C+Z9PFpk1nsg04XHdBzEbJa4+DfrCORaAbJ7Yb8v+G5lNtianjufrW4qQE47AN75zneuuaJUX4Cc1tCTrvD1Bch53iibf9GsNX1hqADZHdKP+qcrXLNeGYovuW45sy4X3TfqO+n+yb79SV9Q8SP0iU984qofl2u1Wxo9iJDanWLRvY80zbfvfhluJEDG9IuPfOQj7VEZYTEFyLjaFTdtxxdh/sO7+/5ugMzfG3+LfYqr1lGOq8rz+fJbpq3MM0DmF1EOOuigVSPt0Ufjgkk6Se+0004rYbIbIPN+HD+o43js3gOZzxrIv1P6Zo/0BcgYtY/pUGnhhPihEQE0Lv50g21e/qz3ei9TH7Gv0wXWcw9kfi6c5R7e/Du8+/0+a4DsriuQz8bpO+fOc5bVdN363jFrgOxesE4XztJMob5ANu33c/eRIPPQzes76TaafMbHLLdKdUNmGp3t/tac5TaHrkF30Cr+vpFcMQ/bGrexqQCZFvmYdDLeyAhk/uOl+7yZta7w9QXIeTZYfuCtNX1hqAC51tTT9QTIVM4sV1hzz1mm2+Qnw7yPpH7TncKapnDmATJGQLrPCYrPRYDMr/DGvqUTePzA7V4BzH98dn26/7s7hTV++MaN2en/pwAZ//spT3nKypz79KOh7/3dANn3gyT9GOgbrZlnX7atxROYd4BMx1KMOEboi+/ifMp1HA9xP2S8Jo1AdgNkfmU4H51MP7LiuPvc5z7X3iMTI/vdmSiTAmQeYtPUwRQg8yXnU6uu9f24eC1vj4YUmGUEsu9cOMv5sS/gpQskkz6f/0ZazwjkemYLDek3trImBci1ngM56bdRN2xNCpB990DO64JXt77dhfz6Bhi678kvCvYNBqy10NSkx3j0DZjEOSjdmpTf99hXvlVYyxy5mwqQsUvde83yjj7pHsh0P9ykgJn/UMirvdYVvkUJkH0BsS8QpdGxVL++L5P1XJHJ7+vZ6D2Q3S+4tbrcWgGy++Nw0g+21M4xypF/ceT1vuWWW1aNYqd65qMg6QfoRkcg00WLPPDGl2CawhpXgeNey7iqmFZWi89EgE1hMf2Yjr/3vX+WZ0BNm36XX0BxD2SZL8RFLXXeATL6WoS4WHr98MMPbxdwiO/6+JEb90PGv6cLfBu9BzK/ah9X2/PvlElX7NN9Zd1R+vSds9tuu608p2zS+UWAXNReXn6/ZgmQaRQjn0Y9LUBOCp1plsyki4J5n5/lomzsW5r2ly5CxrlqHguslG+dxdtCX39ZvL0cbo/GVt/h5MZZ0qYDZJct/xLcyAjkWlfW1rrCtygBsu/KerdO3R9Ok04EGw2QfSfA7lWZvqC7nquaswbINDoQ+/SGN7yhOeecc1ZWp8sDZH4/Y95v8mnQabXH/ffff2XRgfSDshuau1NK1roHsq8P59Pg7rzzznYEMr8fLAXICI6xj/FKox59788D5Fqj0GkqXve+zUlX7Up/baV97V4B7FsVrruP3YtL+b7GhaboDzF61S17lqXp17pwlbYz6xT2Se+bNpW4e+U1N8nd8otq3ZHn/Gpt/rfu1LR5B8g0mh5BMV9NMlY+fuSRR9oZAKlP900j6k5/muW7rPud0v1enDQCmY9gxkWgZJr2K31f5OeICJp9q/WVPp6Uv7UCswbI9d4DOW3aXPc2jVDoHiPrDZDpPL+VD57f2tYsv/WxBaqx1bd8D6p7CxMD5FpDzzEtqLvASGLKr+4OeQ/ktCt88SNi2v2TJZsyHXjrmb6Qj3j1/SCf5UdXqlPfKMC0qQV9q7DmJ7Uoe9JSzmud7PIf9xEGTj/99PZkme5XSlM00g/ru+66q91O3FQdz3TMfzznP8Tj34877rgmVtuKH3/xyqe3TluFNV2lnTYCMWkkML+vJQ+QEWxjnn/UK0Yl07S57n0w+THSvUci/tb9wTzL9JGSfXrSRZlJFzySa3wuDx2pbpOmp0xbYa2vjvkCRH0XPlK/eeihh3qfC5WHzDgOuu9Ldew+JiL/XP5sr/zCUbpokvpBOlbyEezuKr3dBZi6P0jnHSAn/Tjtu0AW7+0G+r7nQPYtbpDPeogRz3jlCyukWSzx/ZivbNkX7vuCbJTXvfC4bM+KLX2Mj6n8WQNkN+DF/+67hzfOb9Ff8+/93DNdyIzbHuK/83uAZ30OZJo22HfOndTnx9SmJes6tkA1tvqW7DtjKHtigOwb8eheMev+yOl+ZiMjkN3RuTwgda+09c1r7gtF82hIB97GlaeN9Gy8ZJ/crMAso6XpZv84duOeue4S9hsNkLOOIHbDTlyQiB976cJFWgGua5FCYvd96Xsuv/Axbcpw7hThKV84YFro6rtPr3tMbEWA3Gzf8XkCiybgPL1oLbLY+zO2/jK2+i5271v8vZsYIPuuKvdNLeve55jfZDvpHsg08hQjlGvdjJz4pk1rTYstpCmOaURjPT9AN9tUDryNCwqQG7cr/clJAbLbZtMWuFrPaPpG6jTp6nzfMuPd8jc6hTUvJ69f/Hs+cj/p/qm1ZkwswgjkRtrBZwgssoDz9CK3zuLt29j6y9jqu3g9brn2aM0AuVxV2dq9deBtrb+tlxGYNUBOW+BqrQDZvQdyvSvOTRrhm/UC0mYDZN9jYvIpypMC5FpT0sIkn9ZuBLJM/1bquAScp8fV3put7dj6y9jqu9n+MfbPC5AD9QAH3kCQilkogUkBshvapi1wVWoEsjutPsebR4Dsm+rfHZ3tq/ukqfpp/7vuAuRCHRZ2ZkkFnKeXtOG2aLfH1l/GVt8t6lbVbFaAHKgpHXgDQSpmoQRmuQcy7jnsLpAyS4ja7KJX0x47UzpATlrAorvdvgV28ocx9zV4d1RTgFyow8LOLKmA8/SSNtwW7fbY+svY6rtF3aqazQqQAzWlA28gSMUslEBfyOuuwjptCftY/XboEchJ01bnNQK51n3ZfY/tif2K1RonrV7cDZ1dLwFyoQ4LO7OkAs7TS9pwW7TbY+svY6vvFnWrajYrQA7UlOnAS48XSAsOxeMmYlGf9AMybW7WhWMmPaS7u9v5M9Lyv036cT/L4iIbocn3Y9I+5eWmH9uxamY8Kyt/8PKkR4isNWKTnsGYP3cxLeY0luX78zASVrHEfPTBV73qVc2kFUkntXX+GJX8Pen+vFkXuOobpZxUdmwnyu+uZppvv2/KbPfeyb4RyL4+Oes9kF3XvmX9k0tet7RfaZGv7j2fqV92nxHpHsiNfAP5DIHJAn4g6x3rERhbfxlbfdfTF7x3ewEBcqBe0Rcg43EGk0Ydag2Q3R/5e+65Z3PGGWdMVM4DZHpOY7x5Vp9UcCrne9/7XvPc5z53ZZvpWYxf/vKXm6OOOmrNfRmoK2x5MZMC5Gtf+9rtns+45TtrB2YSMAI5E5M3EVhTwA9kHWQ9AmPrL2Or73r6gvcKkMX6QDrwYmpdvGI07Ytf/GI7Za1v2lrfPWJpRCM9hDtGKuK5lvFKj0fJRynyh3VvZgSy+xDwfOQjH+nJ9yFGB/fbb7/moosuavLHu6T9iH1Oj2iJEZYTTjihOfbYY5sbbrihrU8alYn/jn/PRyBf//rXN6eeemoT9Y86PvnJT2723XfflfCXP0S+GyBjn+JhzZdcckkTzycMrxiBi1cqozvy1a3XjjvuuLKfuUX+WJq8zt3Rpu9///srI32T2iv6yTXXXNPEtq699tq2njFKGGax//loabw39YOuW9xLd/nll6/0kVj9MznHPr71rW9t++GrX/3q5m1ve1v7/9NzG4sdDAoeXGBeAXLwHVcgAQIEllhg27ZtS7z369t1AXJ9XmN/txHIgXrAWgfetAAZuxAB4cgjj2xDUr5CYzwr85577mlHMrv3o+Xvi/DRN9o3yxTWvJybb765DTERbh544IH2/8c03Hidcsopzcknn9z+dwS+eGh87Fe+jXw/utNZ43Pdehx88MHbBcgrr7yyue+++1ams0aQ7NuPfJpqCsGHHnpoE4ErTdVMYTMMwycF2fTw9u7z+6JeJ5544nbtEC75oxnyNs3/O7Z3xRVXtPu7++67t+2ankvadY6/RUBNBvfff3/7v6O+aVvhkBao2WeffVqrCI0pKIZptE/ebrHdUlOUBzpcFLNOgXmc2OexjXVW29sJDCqgjw/KWX1hY+svY6tv9R24cAUFyIGApwXINEqUby6NIOZhaY899li14Mgtt9yyEiC7C4fko5hvfOMbJwbINBKYbzuNoKVQEsEpppDm97Tl93Hmo1bdBT7yKZNXX331yn5MGhXNp63OEiBjv1OICqsYUUwjjKlOeZkxdTiFxRR68/3KHbrTPfPVRNMoYQS07qhdujf17LPPXhXW8vIigHefB5ju68xDYrR5bpW363XXXdfceuutbUiMfUj7dPHFF7cmKQjn2xUgBzqoF6iYeZzY57GNBSK1KyMU0MdH2OibqPLY+svY6ruJruGjTdMIkAN1g2kBMo2+pc3lIaEbJvIw0A2QaSpjKieFvEkBadoIZHeULMrNw0w+bTNf7CNf4GaWANldICS2k4++TVtEJ/YpRjxjeme8uvdV5gEy/h4h8phjjlkZxcwDdj4lNN6bDOO/83rlATL+lk/Bjf8dU19jG3no7AbISe2Vj+5GMFwrQHYvAMSFhwiU55xzTjsSHMFfgBzoQF7QYuZxYp/HNhaU126NREAfH0lDD1TNsfWXsdV3oG4y2mIEyIGafjMBcj0jkGkqZ3dEbKP3QK41ApmHtO5qqXloykck+0Ygu9NG1zsCGSN0EeY+8pGPtK0V02jz6avxb3mZEbBi/yIYPvLIIysLGcWo5NFHH71qWml3BHJSgIypxPlI4KwjkJPaqzu6uVaATFOY867aXXxIgBzoQF7QYuZxYp/HNhaU126NREAfH0lDD1TNsfWXsdV3oG4y2mIEyIGafjMBMnZhI/dA5g9SX2sKax58YlvdxxZMugcyH/1Mq5nm90CmewWn3QPZDZBpBHA9I5Dp/s/ddtttZTrnpECVpsXGgj1pEZwU0LoBMr9nca0RyDxApscx7L///tutsrvWPZB5e+X3da41ApnfAxmhObVVmsJqBHKgA3jBi5nHiX0e21hwZrtXuYA+XnkDD1y9sfWXsdV34O4yuuIEyIGafDMBMt332F2FNY28RbjsW4W1b/XT7tTOaVNYI5RMWoW1++/dKaxptdJJq8Hmz1+Mfc1XlA32fFGb7hTWFKrj/0cI7N4n2G227ohcHta6n82n5b7uda9r7rjjjlWrwMYiPsk+jSDmz/CL+h533HHNjTfe2IbZ/G+nn356W15axCefupu316wjkHkfiDon65122mll8aHuFNY0qtz3TMyBurti5iwwjxP7PLYxZzabI7BKQB/XIdYjMLb+Mrb6rqcveO/2AgLkQL1iTAfeep/ROATxpIe9D1H2kGV0FzoasmxljVdgHt8v89jGeFtQzRdBQB9fhFZYnn0YW38ZW32Xpycu5p4KkAO1y5gOvHkHyDSKl6bMDtRkgxTTHaXNRxkH2YBCCPxotbPSzyNL32Hd56SmBsifidq3KFa8L82UyBstLqqkRwPl9y7nz5hN74/jJx71Eystp2fG5mWl56B6lqnDYiMCYzpPb8THZ1YLjK2/jK2++vvmBATIzfmtfNqBNxCkYggQ2E5gHt8v3QCZnl8aO5MCY0xjjynT3Uf5xHu6z6mNf0v3Tsd/77vvvqtWT+57Pm634n3b0T0IbFRgHsfRRvfN5xZPYGz9ZWz1Xbwet1x7JEAO1F4OvIEgFUOAwMIFyNih/H7qu+66a9Xja9IOd1eDjgAYo4lxj3N8Pt1fHO8XIHX0eQs4T89bfLm3N7b+Mrb6Lnfv3Pq9FyAHagMH3kCQiiFAYCEDZD51vbs6cOxw3whkhMZ4xeJe6VmuMYIpQOrkWyHgPL0V6su7zbH1l7HVd3l75mLsuQA5UDs48AaCVAwBAksRINOq0fnOppWa49/yR//EvY9xL+RNN93U3uOYAuTll1++qq75fZbxB1NYHQxDCjhPD6lZf1lj6y9jq2/9PbhsDQXIgXwdeANBKoYAgYUMkPkKw90RyL7Vh/sW2uk+8icqmgJlX7MLkA6GIQWcp4fUrL+ssfWXsdW3/h5ctoYC5EC+DryBIBVDgMBCBshp90DGFNUHH3ywfTZqrJLad49jfo+keyB19HkLOE/PW3y5tze2/jK2+i5379z6vRcgB2oDB95AkIohQGDhAuR6V2GNkcYjjjiiyVdyjUrlITT+ZgRSZ5+ngPP0PLWXf1tj6y9jq+/y99CtrYEAOZC/A28gSMUQILAQAfL2229ftR/d50CedtppzcUXX9zkz3aMgHj99dc3L3/5y5t3v/vdTXxmjz32WCknD6JxP6QAqbPPU8B5ep7ay7+tsfWXsdV3+Xvo1tZAgBzI34E3EKRiCBDY0gCJn0CtAs7TtbZsmXqNrb+Mrb5les14ShUgB2prB95AkIohQECA1AcIFBBwni6AWnGRY+svY6tv6rqf//znmxe96EXNl7/85ebtb397c8opp6zZq7/4xS82f/Inf9J88pOfbH74wx82T3va05pXvvKVzVFHHdX8KFRVfFT8v6oJkAM181gPvIH4FEOAwBoC8/h+mcc2NDKBrRTQx7dSf/m2Pbb+Mrb6ph4Zt17EI6ge85jHNE95ylOaa665ptlll116O2ysOP6qV72q+b//+7/mOc95TvOoRz2qDZLf+ta3mte97nXN6aefPpoQKUAO9J021gNvID7FECAgQOoDBIoKOE8X5a2u8LH1l7HVNzrsQw891MQzjSMQxv36H/vYx5qrr766efazn71df46Q+NKXvrT5+te/3rzrXe9qDjrooPY9X/va15rjjjuu+c53vtN+NkYkx/ASIAdq5TEeeAPRKYYAgSkC8/h+mcc2NDSBrRTQx7dSf/m2Pbb+Mrb6Ro/8m7/5m+b4449vjj322OaZz3xm+98REmNUsjsdNb237+/XXntt++iq8847rznjjDOWr7NvYI8FyA2g9X1kjAfeQHSKIUBAgNQHCBQXcJ4uTlzVBsbWX8ZW323btrVh7y//8i+bK6+8sonHT73gBS9ovve97zXve9/7mic96Umr+nNMUT3//PObD3zgA+39jvnrjjvuaO+j3HfffdsVyB/72MdWdSxMyj1N0+ywQ9M02wLTa2MCYzvwNqbkUwQIbERgHt8v89jGRuruMwSGEtDHh5IcRzlj6y9jq+9Xv/rV5oUvfGHzuMc9rnn/+9/f7Lrrrs0FF1zQjiL2LaYTI4zx+Km4RzJ/fFUcDffee2/77OO4dzJGI3/mZ36m+oPECORATTy2A28gNsUQIDCDwDy+X+axjRmq6i0Eigno48Voqyx4bP1lbPW9/PLL22mnMap47rnntn34U5/6VHPMMcc0v/zLv7xqMZ0YlYz7HGMF1r4AGfc/xtTWBx54YLvnH1d5cLRDjzH2aARy0+07tgNv02AKIEBgZoHuvRgzf9AbCRAgQGDDAmOamTem37GPPPJIe7/jZz/72Xbhm2c961ltH0n//vGPf7yd1vq85z2v/ffvfve77X2Sd955Z2+ATH+///77BcgNH20j/eCYDryRNrFqE9gygXl8v8xjG1sGaMMEfnTFfEyBQKNvTmBs34ljqm8aaXz605/eXHXVVc3OO++80lkuueSS5tRTT21e/vKXN+94xzvaR3UYgdz+WDICubnvl5VPj+nAG4hMMQQIzCgwj++XeWxjxup6G4EiAvp4EdZqCx1bfxlTfdOCOGt13r333rt573vf20TIjJd7IFdrCZADffWlAy/dSHv77bevKvmkk05qLrvsspUbbbt/P+yww7a7ChIPLI2bctMrHnTatzxwvO/CCy9sh83jFZ/plr/XXnutGnafVHYahr/hhhu2k+nbx+6botwzzzyzd4h/1vrE8snxSvscV4fOOuus9t/CML1uu+229mbnmGYQz++Z9Jr1fbF/Mbe9ezVqoC6iGAIbFpjHiX0e29gwgA8SGEBAHx8AcURFjK2/jKW+Mc00Fs+J5zn+zu/8TvPoRz96u179hS98ofmHf/iHVfdHxu/sP/7jP25/az//+c9f9RmrsFqFdcNfjd0AGYEndbAUyuJhpbFMcAS8vr8feOCBKwExQtT111+/Mpc6lRGrROUhKna4L0Dm5U8LeansfPvxmQhep512WnPxxRdvt+JUApwscwAAIABJREFUH1SUc8opp7R/iqWM87DbDZaTthmfzQNkrHgV9Y0rPwLkhrunDy65wDxO7PPYxpI3g91fcgF9fMkbcM67P7b+Mpb6pmc2Hn300StTVLtdKz3zcZ999mkf6bHbbrs1H/3oR9sFdvqeAxn3Uca/TxromXPXncvmjEAOxLxWgIxNRADac889m+iw3QCZQtM999yzMkoZN/fGylD5UsExutn37+sJkGuFxe5oXjdAThvJi79feumlTQTlCIFpZHA920yBOP7/E5/4xHbFq7CbJUDG9mPbd999dxvUuyOy6d/uu+++7d4XI5hGIAc6GBQzuMA8Tuzz2MbgMAoksA4BfXwdWN7arjI5pntmx1DfH/zgB80rX/nK5rrrrmt/b7/4xS/u7ekPPfRQ+zvx05/+9Mr7vvGNb7Tvj5VWYwXXtPDO1772tXaF1liJNYLk0572tFEcPQLkQM28VoBM01pjVHCWEchJQWZSEFtPgFzPqOJ63puPHMbIYwS+Qw45pB2FXW85fU0yLUDGZyKYH3nkke3IZ7z/wQcfbKej3nXXXStTXdP70ght/r6bb77ZFNaBjgfFDCswjxP7PLYxrIrSCKxPQB9fn9fY3z22/jKG+n7+859vXvSiFzU/+7M/uzKyOKmfx0BI3JL1ghe8oHn3u9/dPPaxj20+8IEPNK961avajzznOc9pF9j55Cc/2XzrW99q4r7K008/PT3eovrDR4AcqImn3QOZhrWn3SOZRuAm3YuXRjK700On3QOZ7l/Mw9Ra9w3Gfqwn+KXpqyeffHI7ahqhNk0/nTZyOUsTRL3jik/3lY8q5iOo+b7HZ9Lf4t7QZBX1z/ct/uYeyFlaw3vmLTCPE/s8tjFvN9sjkAvo4/rDegTG1l/GUN8UCl/zmtes3C41qU+ksBl/zxfT+cQnPtFcdNFFzS233NL88Ic/bEccY1TzqKOOGk14DBMBcj3fJmu8d9oU1vTRfDRy0ujcWlMpZw2Qk+6BXE8oXO970/TRVNc83K3nXso+5mkjkN1gmE/37QbIfGGi+FtarCemJQiQ2+tPuuiRL6qUTx/OS0h94I1vfGP7z937d/vaddZDsrvNSfcezLKNSRc54mSTppZP6pfpwkaqa7owk+9fWkQrXZjJj5V8v9PJLd6Xf2YeJ/ZpF8HW097JIK9P1Km7+EB30a6uYVp4K7eIclKfTGXG8R/H9bT35dPX+/pp+vuJJ5646h7u/Hu372JWvt1Jx0v6ntl99917FzrrW5hh1mPB+2YTmMdxNNueeNcyCIytv4ytvsvQBxd5HwXIgVpnowEyNt9dMGfSvY75v8c867inMkYi1zOFddI02Cg7hbz8B/Cswa/vR3r60XXCCSe0D2DtLtLTt81JzTEtQMYPv1lHICeFRPdA9ut3L3rEu7r9aNrFhryPpv7VV+6sh2N3xHvS9icFkHw7Kejtsssuqx4AnMJPN5Skz+aj7PFveR/N63bwwQev9P84FmKhqTRS3x0pj3uI4xlU8cqPmXmc2Nf6Dltve0/6Xsvv/05Gadp5fKa72Fb87ze96U3N4x//+FWrLXf/PQLkLO+L74m1vtMm9YVugMwvhnQXOJvWr/v+nrYbFxO6q/vNekx433SBeRxH0/fCO5ZFYGz9ZWz1XZZ+uKj7KUAO1DKbCZB9oW7aKqz5yEj896233tre7/fwww/3LtKTV3PSiqjdFV6nhYJU5qQfTPl+xf2F+eM91lpVtq9JpgXI+MxG7oHMnU1hnT1ApoCQRuem9ZW+PpKHyhihTBdENnJI9h1D6QJFlNe3enEeWOK+hdiftPBTujd2v/32a775zW9uN3Lat495fboXNPJjIX9g8bTViJPvPE7s077D8u+cjbR38k4XcN75znf2ju7m20kXdXbcccfm8MMPXwlX0T5PeMITms985jNtm6Vjd9r7ZgmQcSEqysn7zFoBMuqVe6QRxkmzQGb5vsz7yEaOB5/pF5jHccS+HoGx9Zex1beenro1NREgB3Kf9uNrWtjqe37iWs9NzKd+5c94nDR9KrafT5Hqlt03yjLrKqx9o0vpR1VM1UtX1WfZ5qTmmBYg0/2M3VVY49+7093yaWy5nRHI2QPkRkakum3YNx17o4dj34/yVH6EsHh1p8/m29roFNa8jO4Fk3yke9IxMilMdH3ncWIfcgRyUn2TV/5oo+6IW/7ZFAzzIJ8uDMSxHm2aB8hp75s1QF5wwQXNueeeu7IS9rQAOe1RTXk/mdTmQ9wrvtHjZyyfm8dxNBbLMdRzbP1lbPUdQx8uWUcBciBdB95AkIpZOIFZFn6adA9kfmEiD+gxUt73SJqNVr4bTtMjZWI6aIwElQ6Q3Yst3RHHSYGq78JIutCS3w84j++XafdArnUfZ2q39J5pF2PWCpB9C1uFU3o0UITKWKArnseVL44VgX3a+ybdA5n2O992LPOeZnZEH0oj5H1t1hcgYz/zV7qHdNIsEQFyo0f/7J+bx3E0+95456ILjK2/jK2+i97/Fn3/BMiBWsiBNxCkYhZOYJaFn6ZNaYxK5ffwxupl6cf5Zqfr5Y9iibK690eWXEQn6tV3/1o3QPUFyO5+dxs+/8zP/dzPFX8e2aQRyL62ndbemxmB7AuQF198cXP22We3946m+78POuig7QLktPfNOgIZo5o77bRTex9qjHRGYF0rQE57VNMsI5DTzBbui2EJd8h5egkbbQt3eWz9ZWz13cKuVcWmBciBmtGBNxCkYhZOoG/KXfce3WmBIiqVRmlimuEdd9zR/jDfzIIhk+6jnWU0tIu80SmsfVPPU6jMF3XKRyTj7xFMJt2XmfYtN40FqEo/0HqtKazrbe+1pmmmhYLWcw9k3N8d74/7UaPvnH/++S1TdwRy2vvWEyBj+nsKdbvtttvKImCTptOnxXncA7lwX2ErO+Q8vbhts4h7Nrb+Mrb6LmKfW6Z9EiAHai0H3kCQilk4gSFWYU2VSiubdh/XsJFKzzKyGOXO8r6NBMi1QvOkVVhj1eRJ+9MdtcxDZ6xCupUBciP3vPatLp0vdDXrKqzpXtJYiCs+3/dM23wBrLXet94AmfpPPKolPW6l235WYd3I0bs1n3Ge3hr3Zd3q2PrL2Oq7rP1yUfZbgByoJRx4A0EqZuEEJo0m5aNvsdPd54DGv+WLFKWRuXjfIYccsmpRm/UuqDPpvsy+Z0F2H6/Rd+/lrAGye49crCycv/JgnI+Epnvspu13/tzErb4HsruK6Ebau/scyG77zPIcyBQg072D6bEffVNd85Wo+9436R7I1E/zUc3u42ZSeRt9DmSUHQuZRbtGEO7eI+k5kOW/+pynyxvXtIWx9Zex1bemvroVdREgB1J34A0EqRgCBLYTmMf3yzy2oWkJbKWAPr6V+su37bH1l7HVd/l65GLtsQA5UHusdf9QbCJ/ttlAm2yLya/Cd589N2k7aapcLDgR9+3EiFBcFV/vqphptcjuI0C6j81IV/KHrPeilZW3b4xQxAjb3Xff3fucu0Xbd/uz+ALzOLHPYxuLL20PaxbQx2tu3eHrNrb+Mrb6Dt9jxlWiADlQe29VgMx3f9Zl4PuW2M9XyDzggANmUoly3vSmNzVxf1Z6AHt8cNK/z1Tokr5pUoCM6sR9b14ENiMwjxP7PLaxGQOfJbBZAX18s4Lj+vzY+svY6juu3jx8bQXIgUzXGyDT6F1sPi0KEY8gyP893QOVlpOP1SuvvfbadmQr3UuUQuPrX//65tRTT23vq0mfi/+Oe23SK91j0x2BjPfE32644Yb2nrWXvexlzT/90z81cT9R7FP+TL38kQupnB133LE5/PDDV1bUjBG4JzzhCc1nPvOZlWCZ3wuV7jfaZ599VlajjEUq4tV9bmDf/sf7UnlRVgTe2If0oPj8HqWuUxhedNFFbT3jbxdeeGFrNukZd/l9aFHftI2///u/X7m/74EHHlhxjnL23Xff5qlPfWoT/x6vzaw0OlD3VMySC8zjxD6PbSx5M9j9JRfQx5e8Aee8+2PrL2Or75y7U3WbEyAHatL1BMj8uXEHH3zwSoiK55zl00gjJMXrhBNOaN9z//33t0EvX0kw/p6Wss+nsHZXG8xXdIxVCmNhiklTWGMZ+r796I6kpQAZoSyW149wFSOZaVps/O8YmYyAFkEt9j2ms6ZFTeLfol7xirAa+xWLksS+xSstix8BMd//u+66a+Vvacn8/fffv91+930xPTeC4hOf+MR2qu6JJ57YjgjGPsSz3brb6i7Bnz+rL63uGPXI2y1t95577lm1MMxAXUsxBJp5nNjnsQ1NSWArBfTxrdRfvm2Prb+Mrb7L1yMXa48FyIHaoxsguyvsxWbSKNekh4y//e1vb1772te2zzjLp5F2l9CPstKqlfnDtNe6BzLf5rQAGdtO9/FFUDrllFPaB3h3p7amMuO9EdxSWIxgdswxx6wE2+49kGm6ZwqQ8Yy7CHVrTaPN97/7/LhJ5XWduoE0Bb58uzFqmIfd7kqP+d/yaaul7nEdqHsqZskF5nFin8c2lrwZ7P6SC+jjS96Ac979sfWXsdV3zt2pus0JkAM16XpGIPNRsjRFNB9FTI9DSFNbYxdjpC5/8PosAbK73Hwqb5YAGYEtBcH04O98+mrsUz4VNkZPI2ReffXVzZ577tnkwTZNwY0psukVYToFyFSvboCctP/xeIF4pemk3QCZbycF926gzQNfN0Dm02bj82nKbYTL9EiBsBAgBzp4FDNVYB4n9nlsY2pFvYFAQQF9vCBuhUWPrb+Mrb4Vdtm5VkmAHIh7PQFy0ghkmuKZdmnSyFo+IjlpBLI7bXS9I5BpKmqEp7ifsW8hmO6oYExjveOOO9oR1HilUHzdddc1t95668o9ld169QXI7kjgekYg86CdLLsLDK0VIPOQmHePvge9p1FMI5ADHUiK6RWYx4l9HtvQvAS2UkAf30r95dv22PrL2Oq7fD1ysfZYgByoPdYTICfdA9k3Sha7l+6BjP+OewXzewDzoJZPYc0DZBoBTJ+fZQQy3pvfJ9i3Mms3lMbIXRrljH3sC5DpYeBxz+JaI5B5gOzu/6z3QOYPHs+DdkypnRQgu/dAxvuuv/769v7NMDUCOdABo5h1Cfzoi3pdn/FmAgQIENicwLZt2zZXwBJ9WoBcosZagF0VIAdqhPUEyNjkpFVY89VKu1NYd9111yatVppWVM1H1qLcNP0yguY555yzsrLq6aef3m4z3afYXUQnLQpz5513tiEpAmPf4z5yrvzveViL0cq+/UorxB533HHNjTfeuGoRn1ipNJ9KmlZoTSvD5vufAmAsuBOrpD7zmc9sHnnkkd5VWNN9p7OOQEa9U8CP1W7T9NU+jzyETnom5kDdSzEjF5jHiX0e2xh5M6r+Fgvo41vcAEu2+bH1l7HVd8m648LtrgA5UJOUPPDSlNW+qZkD7X5vMek+y0V+jmHfAkMlTZRNYCsESn6/pPrMYxtbYWebBPRxfWAjAmP7ThxbfTfSJ3zm/wkIkAP1hpIH3rwDZNpe0KRnQQ7ENEgx+ehtFJg/w3GQDSiEwIIJlPx+8eN6wRrb7hQTmMdxVGznFTx3gbH1l7HVd+4dqrINCpADNagDbyBIxRAgsJ3APL5f5rENTUtgKwX08a3UX75tj62/jK2+y9cjF2uPBciB2sOBNxCkYggQECD1AQIFBJynC6BWXOTY+svY6ltx151L1QTIgZgdeANBKoYAAQFSHyBQQMB5ugBqxUWOrb+Mrb4Vd925VE2AHIjZgTcQpGIIEBAg9QECBQScpwugVlzk2PrL2OpbcdedS9UEyIGYHXgDQSqGAIEtDZDxOJ14HFA8did/pcWq0t/POuusJh6/k175Y23yR+Gkv8cjd+LxQ/EYnvj7aaed1j7Kp/uM2b7Vn/PHG0V56TFG+f7F4lrxaJ/0GKK+fUjvf/Ob39x0nw0bf0sLiMXjg+KV73P879iPK664YmUb8W/544f6nperOy+OgPP04rTFMuzJ2PrL2Oq7DH1wkfdRgByodRx4A0EqhgCBhQiQeUDMV4KOUBUBc1qA7AbECIbxuuyyy9YVICO0XX/99Svhsy/Axv6dcsopbfn77rtv0330UJRx6623rlpVuvts2FTukUceufL5bihNQTZf+VmAXJ4D1nl6edpqEfZ0bP1lbPVdhD62zPsgQA7Ueg68gSAVQ4DAwgXI2KE0Mnj00UdvKEBGGIvRwXg00F133TXTCOSk0c68rJ133rkNpJdeemkTz8qNkHfllVe2I53pNUuAzEdQ8wbI/z2Vc//9968EaAFyeQ5Y5+nlaatF2NOx9Zex1XcR+tgy74MAOVDrOfAGglQMAQILFyDzILeZEcg999yzHd2bdQprBMULL7xwZfRxUteIYBevKDuC7iGHHLLd9Nq1RiB32mmn5thjj20DaD4tN8rM9+G6665r7rnnnrb8FIYffvjh5vjjj2/OP//87abj6sqLJeA8vVjtseh7M7b+Mrb6Lnr/W/T9EyAHaiEH3kCQiiFAYCECZPceyLhvMALaRu+BPOyww1amkK4nQKagFiONfa80ffXkk09uA1wEvptuuqmdKjvrCORaATKf6poCZITaCJwHHnhgEyOyAuRyHLTO08vRTouyl2PrL2Or76L0s2XdDwFyoJZz4A0EqRgCBBYiQHbvcUw7NWuA7N4DmY/k3XfffTNNYZ1lBHLagj2x39OmsK43QKb7OM8777zmggsuaM4991wjkEtw3DpPL0EjLdAujq2/jK2+C9TVlnJXBMiBms2BNxCkYggQWOgAmS+ok0/3nLZITn6vYFRwllVYJ4XVdM/jJZdc0t6LGK98xLG7kuu0ABn3S856D2RMYU3biu08+OCDzfe//30BcgmOW+fpJWikBdrFsfWXsdV3gbraUu6KADlQsznwBoJUDAECCx0gY+dScIoFcdIiNnH/YExzjVDZN0V1IyOQafSwbxXWWC11rQV98nseZwmQs67CmgfI9JmHHnpo1aM9dOHFFHCeXsx2WdS9Glt/GVt9F7XfLct+CZADtZQDbyBIxRAgsPABMoXIyy+/fGVf82cz9k0r3WuvvdZ8RmP6+9VXX92kxXZS4d3nQKb7MSdNcU3bT4F2lgAZ25rlOZB5gIzPdB/1ofsuroDz9OK2zSLu2dj6y9jqu4h9bpn2SYAcqLUceANBKoYAgS0NkPgJ1CrgPF1ry5ap19j6y9jqW6bXjKdUAXKgtnbgDQSpGAIEBEh9gEABAefpAqgVFzm2/jK2+lbcdedSNQFyIGYH3kCQiiFAQIDUBwgUEHCeLoBacZFj6y9jq2/FXXcuVRMgB2J24A0EqRgCBARIfYBAAQHn6QKoFRc5tv4ytvpW3HXnUjUBciBmB95AkIohQECA1AcIFBBwni6AWnGRY+svY6tvxV13LlUTIAdiduANBKkYAgQESH2AQAEB5+kCqBUXObb+Mrb6Vtx151I1AXIgZgfeQJCKIUBAgNQHCBQQcJ4ugFpxkWPrL2Orb8Vddy5VEyAHYnbgDQSpGAIEBEh9gEABAefpAqgVFzm2/jK2+lbcdedStVUBci5btBECBAgQIECAAAECBAgQWGaBHXZommbbtm3blrkS9p0AAQIECBAgQIAAAQIECgqYwloQV9EECBAgQIAAAQIECBCoSUCArKk11YUAAQIECBAgQIAAAQIFBQTIgriKJkCAAAECBAgQIECAQE0CAmRNrakuBAgQIECAAAECBAgQKCggQBbEVTQBAgQIECBAgAABAgRqEhAga2pNdSFAgAABAgQIECBAgEBBAQGyIK6iCRAgQIAAAQIECBAgUJOAAFlTa6oLAQIECBAgQIAAAQIECgoIkAVxFU2AAAECBAgQIECAAIGaBATImlpTXQgQIECAAAECBAgQIFBQQIAsiKtoAgQIECBAgAABAgQI1CQgQNbUmupCgAABAgQIECBAgACBggICZEFcRRMgQIAAAQIECBAgQKAmAQGyptZUFwIECBAgQIAAAQIECBQUECAL4iqaAAECBAgQIECAAAECNQkIkDW1proQIECAAAECBAgQIECgoIAAWRBX0QQIECBAgAABAgQIEKhJQICsqTXVhQABAgQIECBAgAABAgUFBMiCuIomQIAAAQIECBAgQIBATQICZE2tqS4ECBAgQIAAAQIECBAoKCBAFsRVNAECBAgQIECAAAECBGoSECBrak11IUCAAAECBAgQIECAQEEBAbIgrqIJECBAgAABAgQIECBQk4AAWVNrqgsBAgQIECBAgAABAgQKCgiQBXEVTYAAAQIECBAgQIAAgZoEBMiaWlNdCBAgQIAAAQIECBAgUFBAgCyIq2gCBAgQIECAAAECBAjUJCBA1tSa6kKAAAECBAgQIECAAIGCAgJkQVxFEyBAgAABAgQIECBAoCYBAbKm1lQXAgQIECBAgAABAgQIFBQQIAviKpoAAQIECBAgQIAAAQI1CQiQNbWmuhAgQIAAAQIECBAgQKCggABZEFfRBAgQIECAAAECBAgQqElAgKypNdWFAAECBAgQIECAAAECBQUEyIK4iiZAgAABAgQIECBAgEBNAgJkTa2pLgQIECBAgAABAgQIECgoIEAWxFU0AQIECBAgQIAAAQIEahIQIGtqTXUhQIAAAQIECBAgQIBAQQEBsiCuogkQIECAAAECBAgQIFCTgABZU2uqCwECBAgQIECAAAECBAoKCJAFcRVNgAABAgQIECBAgACBmgQEyJpaU10IECBAgAABAgQIECBQUECALIiraAIECBAgQIAAAQIECNQkIEDW1JrqQoAAAQIECBAgQIAAgYICAmRBXEUTIECAAAECBAgQIECgJgEBsqbWVBcCBAgQIECAAAECBAgUFBAgC+IqmgABAgQIECBAgAABAjUJCJA1taa6ECBAgAABAgQIECBAoKCAAFkQV9EECBAgQIAAAQIECBCoSUCArKk11YUAAQIECBAgQIAAAQIFBQTIgriKJkCAAAECBAgQIECAQE0CAmRNrakuBAgQIECAAAECBAgQKCggQBbEVTQBAgQIECBAgAABAgRqEhAga2pNdSFAgAABAgQIECBAgEBBAQGyIK6iCRAgQIAAAQIECBAgUJOAAFlTa6oLAQIECBAgQIAAAQIECgoIkAVxFU2AAAECBAgQIECAAIGaBATImlpTXQgQIECAAAECBAgQIFBQQIAsiKtoAgQIECBAgAABAgQI1CQgQNbUmupCgAABAgQIECBAgACBggICZEFcRRMgQIAAAQIECBAgQKAmAQGyptZUFwIECBAgQIAAAQIECBQUECAL4iqaAAECBAgQIECAAAECNQkIkDW1proQIECAAAECBAgQIECgoIAAWRBX0QQIECBAgAABAgQIEKhJQICsqTXVhQABAgQIECBAgAABAgUFBMiCuIomQIAAAQIECBAgQIBATQICZE2tqS4ECBAgQIAAAQIECBAoKCBAFsRVNAECBAgQIECAAAECBGoSECBrak11IUCAAAECBAgQIECAQEEBAbIgrqIJECBAgAABAgQIECBQk4AAWVNrqgsBAgQIECBAgAABAgQKCgiQBXEVTYAAAQIECBAgQIAAgZoEBMiaWlNdCBAgQIAAAQIECBAgUFBAgCyIq2gCBAgQIECAAAECBAjUJCBA1tSa6kKAAAECBAgQIECAAIGCAgJkQVxFEyBAgAABAgQIECBAoCYBAbKm1lQXAgQIECBAgAABAgQIFBQQIAviKpoAAQIECBAgQIAAAQI1CQiQNbWmuhAgQIAAAQIECBAgQKCggABZEFfRBAgQIECAAAECBAgQqElAgKypNdWFAAECBAgQIECAAAECBQUEyIK4iiZAgAABAgQIECBAgEBNAgJkTa2pLgQIECBAgAABAgQIECgoIEAWxFU0AQIECBAgQIAAAQIEahIQIGtqTXUhQIAAAQIECBAgQIBAQQEBsiCuogkQIECAAAECBAgQIFCTgABZU2uqCwECBAgQIECAAAECBAoKCJAFcRVNgAABAgQIECBAgACBmgQEyJpaU10IECBAgAABAgQIECBQUECALIiraAIECBAgQIAAAQIECNQkIEDW1JrqQoAAAQIECBAgQIAAgYICAmRBXEUTIECAAAECBAgQIECgJgEBsqbWVBcCBAgQIECAAAECBAgUFBAgC+IqmgABAgQIECBAgAABAjUJCJA1taa6ECBAgAABAgQIECBAoKCAAFkQV9EECBAgQIAAAQIECBCoSUCArKk11YUAAQIECBAgQIAAAQIFBQTIgriKJkCAAAECBAgQIECAQE0CAmRNrakuBAgQIECAAAECBAgQKCggQBbEVTQBAgQIECBAgAABAgRqEhAga2pNdSFAgAABAgQIECBAgEBBAQGyIK6iCRAgQIAAAQIECBAgUJOAAFlTa6oLAQIECBAgQIAAAQIECgoIkAVxFU2AAAECBAgQIECAAIGaBATImlpTXQgQIECAAAECBAgQIFBQQIAsiKtoAgQIECBAgAABAgQI1CQgQNbUmupCgAABAgQIECBAgACBggICZEFcRRMgQIAAAQIECBAgQKAmAQGyptZUFwIECBAgQIAAAQIECBQUECAL4iqaAAECBAgQIECAAAECNQkIkDW1proQIECAAAECBAgQIECgoIAAWRBX0QQIECBAgAABAgQIEKhJQICsqTXVhQABAgQIECBAgAABAgUFBMiCuIomQIAAAQIECBAgQIBATQICZE2tqS4ECBAgQIAAAQIECBAoKCBAFsRVNAECBAgQIECAAAECBGoSECBrak11IUCAAAECBAgQIECAQEEBAbIgrqIJECBAgAABAgQIECBQk4AAWVNrqgsBAgQIECBAgAABAgQKCgiQBXEVTYAAAQIECBAgQIAAgZoEBMiaWlNdCBAgQIAAAQIECBAgUFBAgCyIq2gCBAhssBmvAAAgAElEQVQQIECAAAECBAjUJCBA1tSa6kKAAAECBAgQIECAAIGCAgJkQVxFEyBAgAABAgQIECBAoCYBAbKm1lQXAgQIECBAgAABAgQIFBQQIAviKpoAAQIECBAgQIAAAQI1CQiQNbWmuhAgQIAAAQIECBAgQKCggABZEFfRBAgQIECAAAECBAgQqElAgKypNdWFAAECBAgQIECAAAECBQUEyIK4iiZAgAABAgQIECBAgEBNAgJkTa2pLgQIECBAgAABAgQIECgoIEAWxFU0AQIECBAgQIAAAQIEahIQIGtqTXUhQIAAAQIECBAgQIBAQQEBsiCuogkQIECAAAECBAgQIFCTgABZU2uqCwECBAgQIECAAAECBAoKCJAFcRVNgAABAgQIECBAgACBmgQEyJpaU10IECBAgAABAgQIECBQUECALIiraAIECBAgQIAAAQIECNQkIEDW1JrqQoAAAQIECBAgQIAAgYICAmRBXEUTIECAAAECBAgQIECgJgEBsqbWVBcCBAgQIECAAAECBAgUFBAgC+IqmgABAgQIECBAgAABAjUJCJA1taa6ECBAgAABAgQIECBAoKCAAFkQV9EECBAgQIAAAQIECBCoSUCArKk11YUAAQIECBAgQIAAAQIFBQTIgriKJkCAAAECBAgQIECAQE0CAmRNrakuBAgQIECAAAECBAgQKCggQBbEVTQBAgQIECBAgAABAgRqEhAga2pNdSFAgAABAgQIECBAgEBBAQGyIK6iCRAgQIAAAQIECBAgUJOAAFlTa6oLAQIECBAgQIAAAQIECgoIkAVxFU2AAAECBAgQIECAAIGaBATImlpTXQgQIECAAAECBAgQIFBQQIAsiKtoAgQIECBAgAABAgQI1CQgQNbUmupCgAABAgQIECBAgACBggICZEFcRRMgQIAAAQIECBAgQKAmAQGyptZUFwIECBAgQIAAAQIECBQUECAL4iqaAAECBAgQIECAAAECNQkIkDW1proQIECAAAECBAgQIECgoIAAWRBX0QQIECBAgAABAgQIEKhJQICsqTXVhQABAgQIECBAgAABAgUFBMiCuIomQIAAAQIECBAgQIBATQICZE2tqS4ECBAgQIAAAQIECBAoKCBAFsRVNAECBAgQIECAAAECBGoSECBrak11IUCAAAECBAgQIECAQEEBAbIgrqIJECBAgAABAgQIECBQk4AAWVNrqgsBAgQIECBAgAABAgQKCgiQBXEVTYAAAQIECBAgQIAAgZoEBMiaWlNdCBAgQIAAAQIECBAgUFBAgCyIq2gCBAgQIECAAAECBAjUJCBA1tSa6kKAAAECBAgQIECAAIGCAgJkQVxFEyBAgAABAgQIECBAoCYBAbKm1lQXAgQIECBAgAABAgQIFBQQIAviKpoAAQIECBAgQIAAAQI1CQiQNbWmuhAgQIAAAQIECBAgQKCggABZEFfRBAgQIECAAAECBAgQqElAgKypNdWFAAECBAgQIECAAAECBQUEyIK4iiZAgAABAgQIECBAgEBNAgJkTa2pLgQIECBAgAABAgQIECgoIEAWxFU0AQIECBAgQIAAAQIEahIQIGtqTXUhQIAAAQIECBAgQIBAQQEBsiCuogkQIECAAAECBAgQIFCTgABZU2uqCwECBAgQIECAAAECBAoKCJAFcRVNgAABAgQIECBAgACBmgQEyJpaU10IECBAgAABAgQIECBQUECALIiraAIECBAgQIAAAQIECNQkIEDW1JrqQoAAAQIECBAgQIAAgYICAmRBXEUTIECAAAECBAgQIECgJgEBsqbWVBcCBAgQIECAAAECBAgUFBAgC+IqmgABAgQIECBAgAABAjUJCJA1taa6ECBAgAABAgQIECBAoKCAAFkQV9EECBAgQIAAAQIECBCoSUCArKk11YUAAQIECBAgQIAAAQIFBQTIgriKJkCAAAECBAgQIECAQE0CAmRNrakuBAgQIECAAAECBAgQKCggQBbEVTQBAgQIECBAgAABAgRqEhAga2pNdSFAgAABAgQIECBAgEBBAQGyIK6iCRAgQIAAAQIECBAgUJOAAFlTa6oLAQIECBAgQIAAAQIECgoIkAVxFU2AAAECBAgQIECAAIGaBATImlpTXQgQIECAAAECBAgQIFBQQIAsiKtoAgQIECBAgAABAgQI1CQgQNbUmupCgAABAgQIECBAgACBggICZEFcRRMgQIAAAQIECBAgQKAmAQGyptZUFwIECBAgQIAAAQIECBQUECAL4iqaAAECBAgQIECAAAECNQkIkDW1proQIECAAAECBAgQIECgoIAAWRBX0QQIECBAgAABAgQIEKhJQICsqTXVhQABAgQIECBAgAABAgUFBMiCuIomQIAAAQIECBAgQIBATQICZE2tqS4ECBAgQIAAAQIECBAoKCBAFsRVNAECBAgQIECAAAECBGoSECBrak11IUCAAAECBAgQIECAQEEBAbIgrqIJECBAgAABAgQIECBQk4AAWVNrqgsBAgQIECBAgAABAgQKCgiQBXEVTYAAAQIECBAgQIAAgZoEBMiaWlNdCBAgQIAAAQIECBAgUFBAgCyIq2gCBAgQIECAAAECBAjUJCBA1tSa6kKAAAECBAgQIECAAIGCAgJkQVxFEyBAgAABAgQIECBAoCYBAbKm1lQXAgQIECBAgAABAgQIFBQQIAviKpoAAQIECBAgQIAAAQI1CQiQNbWmuhAgQIAAAQIECBAgQKCggABZEFfRBAgQIECAAAECBAgQqElAgKypNdWFAAECBAgQIECAAAECBQUEyIK4iiZAgAABAgQIECBAgEBNAgJkTa2pLgQIECBAgAABAgQIECgoIEAWxFU0AQIECBAgQIAAAQIEahIQIGtqTXUhQIAAAQIECBAgQIBAQQEBsiCuogkQIECAAAECBAgQIFCTgABZU2uqCwECBAgQIECAAAECBAoKCJAFcRVNgAABAgQIECBAgACBmgQEyJpaU10IECBAgAABAgQIECBQUECALIiraAIECBAgQIAAAQIECNQkIEDW1JrqQoAAAQIECBAgQIAAgYICAmRBXEUTIECAAAECBAgQIECgJgEBsqbWVBcCBAgQIECAAAECBAgUFBAgC+IqmgABAgQIECBAgAABAjUJCJA1taa6ECBAgAABAgQIECBAoKCAAFkQV9EECBAgQIAAAQIECBCoSUCArKk11YUAAQIECBAgQIAAAQIFBQTIgriKJkCAAAECBAgQIECAQE0CAmRNrakuBAgQIECAAAECBAgQKCggQBbEVTQBAgQIECBAgAABAgRqEhAga2pNdSFAgAABAgQIECBAgEBBAQGyIK6iCRAgQIAAAQIECBAgUJOAAFlTa6oLAQIECBAgQIAAAQIECgoIkAVxFU2AAAECBAgQIECAAIGaBATImlpTXQgQIECAAAECBAgQIFBQQIAsiKtoAgQIECBAgAABAgQI1CQgQNbUmupCgAABAgQIECBAgACBggICZEFcRRMgQIAAAQIECBAgQKAmAQGyptZUFwIECBAgQIAAAQIECBQUECAL4iqaAAECBAgQIECAAAECNQkIkDW1proQIECAAAECBAgQIECgoIAAWRBX0QQIECBAgAABAgQIEKhJQICsqTXVhQABAgQIECBAgAABAgUFBMiCuIomQIAAAQIECBAgQIBATQICZE2tqS4ECBAgQIAAAQIECBAoKCBAFsRVNAECBAgQIECAAAECBGoSECBrak11IUCAAAECBAgQIECAQEEBAbIgrqIJECBAgAABAgQIECBQk4AAWVNrqgsBAgQIECBAgAABAgQKCgiQBXEVTYAAAQIECBAgQIAAgZoEBMiaWlNdCBAgQIAAAQIECBAgUFBAgCyIq2gCBAgQIECAAAECBAjUJCBA1tSa6kKAAAECBAgQIECAAIGCAgJkQVxFEyBAgAABAgQIECBAoCYBAbKm1lQXAgQIECBAgAABAgQIFBQQIAviKpoAAQIECBAgQIAAAQI1CQiQNbWmuhAgQIAAAQIECBAgQKCggABZEFfRBAgQIECAAAECBAgQqElAgKypNdWFAAECBAgQIECAAAECBQUEyIK4iiZAgAABAgQIECBAgEBNAgJkTa2pLgQIECBAgAABAgQIECgoIEAWxFU0AQIECBAgQIAAAQIEahIQIGtqTXUhQIAAAQIECBAgQIBAQQEBsiCuogkQIECAAAECBAgQIFCTgABZU2uqCwECBAgQIECAAAECBAoKCJAFcRVNgAABAgQIECBAgACBmgQEyJpaU10IECBAgAABAgQIECBQUECALIiraAIECBAgQIAAAQIECNQkIEDW1JrqQoAAAQIECBAgQIAAgYICAmRBXEUTIECAAAECBAgQIECgJgEBsqbWVBcCBAgQIECAAAECBAgUFBAgC+IqmgABAgQIECBAgAABAjUJCJA1taa6ECBAgAABAgQIECBAoKCAAFkQV9EECBAgQIAAAQIECBCoSUCArKk11YUAAQIECBAgQIAAAQIFBQTIgriKJkCAAAECBAgQIECAQE0CAmRNrakuBAgQIECAAAECBAgQKCggQBbEVTQBAgQIECBAgAABAgRqEhAga2pNdSFAgAABAgQIECBAgEBBAQGyIK6iCRAgQIAAAQIECBAgUJOAAFlTa6oLAQIECBAgQIAAAQIECgoIkAVxFU2AAAECBAgQIECAAIGaBATImlpTXQgQIECAAAECBAgQIFBQQIAsiKtoAgQIECBAgAABAgQI1CQgQNbUmupCgAABAgQIECBAgACBggICZEFcRRMgQIAAAQIECBAgQKAmAQGyptZUFwIECBAgQIAAAQIECBQUECAL4iqaAAECBAgQIECAAAECNQkIkDW1proQIECAAAECBAgQIECgoIAAWRBX0QQIECBAgAABAgQIEKhJQICsqTXVhQABAgQIECBAgAABAgUFBMiCuIomQIAAAQIECBAgQIBATQICZE2tqS4ECBAgQIAAAQIECBAoKCBAFsRVNAECBAgQIECAAAECBGoSECBrak11IUCAAAECBAgQIECAQEEBAbIgrqIJECBAgAABAgQIECBQk4AAWVNrqgsBAgQIECBAgAABAgQKCgiQBXEVTYAAAQIECBAgQIAAgZoEBMiaWlNdCBAgQIAAAQIECBAgUFBAgCyIq2gCBAgQIECAAAECBAjUJCBA1tSa6kKAAAECBAgQIECAAIGCAgJkQVxFEyBAgAABAgQIECBAoCYBAbKm1lQXAgQIECBAgAABAgQIFBQQIAviKpoAAQIECBAgQIAAAQI1CQiQNbWmuhAgQIAAAQIECBAgQKCggABZEFfRBAgQIECAAAECBAgQqElAgKypNdWFAAECBAgQIECAAAECBQUEyIK4iiZAgAABAgQIECBAgEBNAgJkTa2pLgQIECBAgAABAgQIECgoIEAWxFU0AQIECBAgQIAAAQIEahIQIGtqTXUhQIAAAQIECBAgQIBAQQEBsiCuogkQIECAAAECBAgQIFCTgABZU2uqCwECBAgQIECAAAECBAoKCJAFcRVNgAABAgQIECBAgACBmgQEyJpaU10IECBAgAABAgQIECBQUECALIiraAIECBAgQIAAAQIECNQkIEDW1JrqQoAAAQIECBAgQIAAgYICAmRBXEUTIECAAAECBAgQIECgJgEBsqbWVBcCBAgQIECAAAECBAgUFBAgC+IqmgABAgQIECBAgAABAjUJCJA1taa6ECBAgAABAgQIECBAoKCAAFkQV9EECBAgQIAAAQIECBCoSUCArKk11YUAAQIECBAgQIAAAQIFBQTIgriKJkCAAAECBAgQIECAQE0CAmRNrakuBAgQIECAAAECBAgQKCggQBbEVTQBAgQIECBAgAABAgRqEhAga2pNdSFAgAABAgQIECBAgEBBAQGyIK6iCRAgQIAAAQIECBAgUJOAAFlTa6oLAQIECBAgQIAAAQIECgoIkAVxFU2AAAECBAgQIECAAIGaBATImlpTXQgQIECAAAECBAgQIFBQQIAsiKtoAgQIECBAgAABAgQI1CQgQNbUmupCgAABAgQIECBAgACBggICZEFcRRMgQIAAAQIECBAgQKAmAQGyptZUFwIECBAgQIAAAQIECBQUECAL4iqaAAECBAgQIECAAAECNQkIkDW1proQIECAAAECBAgQIECgoIAAWRBX0QQIECBAgAABAgQIEKhJQICsqTXVhQABAgQIECBAgAABAgUFBMiCuIomQIAAAQIECBAgQIBATQICZE2tqS4ECBAgQIAAAQIECBAoKCBAFsRVNAECBAgQIECAAAECBGoSECBrak11IUCAAAECBAgQIECAQEEBAbIgrqIJECBAgAABAgQIECBQk4AAWVNrqgsBAgQIECBAgAABAgQKCgiQBXEVTYAAAQIECBAgQIAAgZoEBMiaWlNdCBAgQIAAAQIECBAgUFBAgCyIq2gCBAgQIECAAAECBAjUJCBA1tSa6kKAAAECBAgQIECAAIGCAgJkQVxFEyBAgAABAgQIECBAoCYBAbKm1lQXAgQIECBAgAABAgQIFBQQIAviKpoAAQIECBAgQIAAAQI1CQiQNbWmuhAgQIAAAQIECBAgQKCggABZEFfRBAgQIECAAAECBAgQqElAgKypNdWFAAECBAgQIECAAAECBQUEyIK4iiZAgAABAgQIECBAgEBNAgJkTa2pLgQIECBAgAABAgQIECgoIEAWxFU0AQIECBAgQIAAAQIEahIQIGtqTXUhQIAAAQIECBAgQIBAQQEBsiCuogkQIECAAAECBAgQIFCTgABZU2uqCwECBAgQIECAAAECBAoKCJAFcRVNgAABAgQIECBAgACBmgQEyJpaU10IECBAgAABAgQIECBQUECALIiraAIECBAgQIAAAQIECNQkIEDW1JrqQoAAAQIECBAgQIAAgYICAmRBXEUTIECAAAECBAgQIECgJgEBsqbWVBcCBAgQIECAAAECBAgUFBAgC+IqmgABAgQIECBAgAABAjUJCJA1taa6ECBAgAABAgQIECBAoKCAAFkQV9EECBAgQIAAAQIECBCoSUCArKk11YUAAQIECBAgQIAAAQIFBQTIgriKJkCAAAECBAgQIECAQE0CAmRNrakuBAgQIECAAAECBAgQKCggQBbEVTQBAgQIECBAgAABAgRqEhAga2pNdSFAgAABAgQIECBAgEBBAQGyIK6iCRAgQIAAAQIECBAgUJOAAFlTa6oLAQIECBAgQIAAAQIECgoIkAVxFU2AAAECBAgQIECAAIGaBATImlpTXQgQIECAAAECBAgQIFBQQIAsiKtoAgQIECBAgAABAgQI1CQgQNbUmupCgAABAgQIECBAgACBggICZEFcRRMgQIAAAQIECBAgQKAmAQGyptZUFwIECBAgQIAAAQIECBQUECAL4iqaAAECBAgQIECAAAECNQkIkDW1proQIECAAAECBAgQIECgoIAAWRBX0QQIECBAgAABAgQIEKhJQICsqTXVhQABAgQIECBAgAABAgUFBMiCuIomQIAAAQIECBAgQIBATQICZE2tqS4ECBAgQIAAAQIECBAoKCBAFsRVNAECBAgQIECAAAECBGoSECBrak11IUCAAAECBAgQIECAQEEBAbIgrqIJECBAgAABAgQIECBQk4AAWVNrqgsBAgQIECBAgAABAgQKCgiQBXEVTYAAAQIECBAgQIAAgZoEBMiaWlNdCBAgQIAAAQIECBAgUFBAgCyIq2gCBAgQIECAAAECBAjUJCBA1tSa6kKAAAECBAgQIECAAIGCAgJkQVxFEyBAgAABAgQIECBAoCYBAbKm1lQXAgQIECBAgAABAgQIFBQQIAviKpoAAQIECBAgQIAAAQI1CQiQNbWmuhAgQIAAAQIECBAgQKCggABZEFfRBAgQIECAAAECBAgQqElAgKypNdWFAAECBAgQIECAAAECBQUEyIK4iiZAgAABAgQIECBAgEBNAgJkTa2pLgQIECBAgAABAgQIECgoIEAWxFU0AQIECBAgQIAAAQIEahIQIGtqTXUhQIAAAQIECBAgQIBAQQEBsiCuogkQIECAAAECBAgQIFCTgABZU2uqCwECBAgQIECAAAECBAoKCJAFcRVNgAABAgQIECBAgACBmgQEyJpaU10IECBAgAABAgQIECBQUECALIiraAIECBAgQIAAAQIECNQkIEDW1JrqQoAAAQIECBAgQIAAgYICAmRBXEUTIECAAAECBAgQIECgJgEBsqbWVBcCBAgQIECAAAECBAgUFBAgC+IqmgABAgQIECBAgAABAjUJCJA1taa6ECBAgAABAgQIECBAoKCAAFkQV9EECBAgQIAAAQIECBCoSUCArKk11YUAAQIECBAgQIAAAQIFBQTIgriKJkCAAAECBAgQIECAQE0CAmRNrakuBAgQIECAAAECBAgQKCggQBbEVTQBAgQIECBAgAABAgRqEhAga2pNdSFAgAABAgQIECBAgEBBAQGyIK6iCRAgQIAAAQIECBAgUJOAAFlTa6oLAQIECBAgQIAAAQIECgoIkAVxFU2AAAECBAgQIECAAIGaBATImlpTXQgQIECAAAECBAgQIFBQQIAsiKtoAgQIECBAgAABAgQI1CQgQNbUmupCgAABAgQIECBAgACBggICZEFcRRMgQIAAAQIECBAgQKAmAQGyptZUFwIECBAgQIAAAQIECBQUECAL4iqaAAECBAgQIECAAAECNQkIkDW1proQIECAAAECBAgQIECgoIAAWRBX0QQIECBAgAABAgQIEKhJQICsqTXVhQABAgQIECBAgAABAgUFBMiCuIomQIAAAQIECBAgQIBATQICZE2tqS4ECBAgQIAAAQIECBAoKCBAFsRVNAECBAgQIECAAAECBGoSECBrak11IUCAAAECBAgQIECAQEEBAbIgrqIJECBAgAABAgQIECBQk4AAWVNrqgsBAgQIECBAgAABAgQKCgiQBXEVTYAAAQIECBAgQIAAgZoEBMiaWlNdCBAgQIAAAQIECBAgUFBAgCyIq2gCBAgQIECAAAECBAjUJCBA1tSa6kKAAAECBAgQIECAAIGCAgJkQVxFEyBAgAABAgQIECBAoCYBAbKm1lQXAgQIECBAgAABAgQIFBQQIAviKpoAAQIECBAgQIAAAQI1CQiQNbWmuhAgQIAAAQIECBAgQKCggABZEFfRBAgQIECAAAECBAgQqElAgKypNdWFAAECBAgQIECAAAECBQUEyIK4iiZAgAABAgQIECBAgEBNAgJkTa2pLgQIECBAgAABAgQIECgoIEAWxFU0AQIECBAgQIAAAQIEahIQIGtqTXUhQIAAAQIECBAgQIBAQQEBsiCuogkQIECAAAECBAgQIFCTgABZU2uqCwECBAgQIECAAAECBAoKCJAFcRVNgAABAgQIECBAgACBmgQEyJpaU10IECBAgAABAgQIECBQUECALIiraAIECBAgQIAAAQIECNQkIEDW1JrqQoAAAQIECBAgQIAAgYICAmRBXEUTIECAAAECBAgQIECgJgEBsqbWVBcCBAgQIECAAAECBAgUFBAgC+IqmgABAgQIECBAgAABAjUJCJA1taa6ECBAgAABAgQIECBAoKCAAFkQV9EECBAgQIAAAQIECBCoSUCArKk11YUAAQIECBAgQIAAAQIFBQTIgriKJkCAAAECBAgQIECAQE0CAmRNrakuBAgQIECAAAECBAgQKCggQBbEVTQBAgQIECBAgAABAgRqEhAga2pNdSFAgAABAgQIECBAgEBBAQGyIK6iCRAgQIAAAQIECBAgUJOAAFlTa6oLAQIECBAgQIAAAQIECgoIkAVxFU2AAAECBAgQIECAAIGaBATImlpTXQgQIECAAAECBAgQIFBQQIAsiKtoAgQIECBAgAABAgQI1CQgQNbUmupCgAABAgQIECBAgACBggICZEFcRRMgQIAAAQIECBAgQKAmAQGyptZUFwIECBAgQIAAAQIECBQUECAL4iqaAAECBAgQIECAAAECNQkIkDW1proQIECAAAECBAgQIECgoIAAWRBX0QQIECBAgAABAgQIEKhJQICsqTXVhQABAgQIECBAgAABAgUFBMiCuIomQIAAAQIECBAgQIBATQICZE2tqS4ECBAgQIAAAQIECBAoKCBAFsRVNAECBAgQIECAAAECBGoSECBrak11IUCAAAECBAgQIECAQEEBAbIgrqIJECBAgAABAgQIECBQk4AAWVNrqgsBAgQIECBAgAABAgQKCgiQBXEVTYAAAQIECBAgQIAAgZoEBMiaWlNdCBAgQIAAAQIECBAgUFBAgCyIq2gCBAgQIECAAAECBAjUJCBA1tSa6kKAAAECBAgQIECAAIGCAgJkQVxFEyBAgAABAgQIECBAoCYBAbKm1lQXAgQIECBAgAABAgQIFBQQIAviKpoAAQIECBAgQIAAAQI1CQiQNbWmuhAgQIAAAQIECBAgQKCggABZEFfRBAgQIECAAAECBAgQqElAgKypNdWFAAECBAgQIECAAAECBQUEyIK4iiZAgAABAgQIECBAgEBNAgJkTa2pLgQIECBAgAABAgQIECgoIEAWxFU0AQIECBAgQIAAAQIEahIQIGtqTXUhQIAAAQIECBAgQIBAQQEBsiCuogkQIECAAAECBAgQIFCTgABZU2uqCwECBAgQIECAAAECBAoKCJAFcRVNgAABAgQIECBAgACBmgQEyJpaU10IECBAgAABAgQIECBQUECALIiraAIECBAgQIAAAQIECNQkIEDW1JrqQoAAAQIECBAgQIAAgYICAmRBXEUTIECAAAECBAgQIECgJgEBsqbWVBcCBAgQIECAAAECBAgUFBAgC+IqmgABAgQIECBAgAABAjUJCJA1taa6ECBAgAABAgQIECBAoKCAAFkQV9lNnkcAACAASURBVNEECBAgQIAAAQIECBCoSUCArKk11YUAAQIECBAgQIAAAQIFBQTIgriKJkCAAAECBAgQIECAQE0CAmRNrakuBAgQIECAAAECBAgQKCggQBbEVTQBAgQIECBAgAABAgRqEhAga2pNdSFAgAABAgQIECBAgEBBAQGyIK6iCRAgQIAAAQIECBAgUJOAAFlTa6oLAQIECBAgQIAAAQIECgoIkAVxFU2AAAECBAgQIECAAIGaBATImlpTXQgQIECAAAECBAgQIFBQYFWALLgdRRMgQIAAAQIECBAgQIBAHQI77NA0zbZt27bVUR21GL1AXBnRn0ffDQAQIECAwIIKOE8vaMPYLQIzCJjCOgOStyyfgBPT8rWZPSZAgACB8Qg4T4+nrdW0PgEBsr42VaOmaZyYdAMCBAgQILC4As7Ti9s29ozANAEBcpqQvy+lgBPTUjabnSZAgACBkQg4T4+koVWzSgEBsspmVSknJn2AAAECBAgsroDz9OK2jT0jME1AgJwm5O9LKeDEtJTNZqcJECBAYCQCztMjaWjVrFJAgKyyWVXKiUkfIECAAAECiyvgPL24bWPPCEwTECCnCfn7Ugo4MS1ls9lpAgQIEBiJgPP0SBpaNasUECCrbFaVcmLSBwgQIECAwOIKOE8vbtvYMwLTBGYOkPfee29zxBFHNPvvv39z2WWXrSr3LW95S3Prrbc2V111VbPzzju3f/vud7/bHHvssc0NN9yw8t6TTjpp1WdTmbfffvuq8vbaa6/mmmuuaQ444ICJZeUf+NCHPtQ8//nPn1ZXfx+RwCwnple84hXN5Zdf3quS+uADDzzQXHjhhU30sfvuu695yUte0tx99929n4n+He+Nfh/v6+uTk/p8FNjt9yNqLlUlQIAAgZEJ9J2n4/fkFVdcseo3YLCkc+dZZ53Vnlvjfffcc892v0f73nf99de35/A99thjO+EoJ/19p5122u53a/pA/jvzwx/+cPt7uO912GGHtb+FH3744fY93d+38Znub+GRNbvqViKw7gAZB0M3sHUD5G233db+gD7kkENWHdzxg/1zn/vcyoEcB/rxxx/fnH/++SthMVzj4DzzzDNXvkBSGJ30o7yStlCNAQVmCZD55qLPxUWL/CJI6ospQOYnn0l9clpfndTnB6y6oggQIECAwMILTAqQ8fsvBbE0KLGZAPnBD36w2XvvvZtLLrlkZZAjnd8j5D3jGc9of5emANn9rdn9TTrp90IOPulcn+px5JFHNmecccbCt5EdJDBJYF0BMsLerrvu2nzlK19ZdTUnD5CxoRiBOfDAA3sPjgiR8YpRzLV+TPeVOS1A9o2EavpxCixzgEwhdNIxNM4WVWsCBAgQqElgUoCMGW33339/k4eszQTIKC9+ux5zzDGrBivS79E0sDEpQHZ/q24mQEb7+a1aUy8eb13WHSDjikmEvzgY01TW/GC46667mtNOO625+OKLVx2oiThGJ88777zmyiuvbP+pbwQy/j1/36SDerzNpubTBJY5QE6rm78TIECAAIFlF5gUIGNqasxgy2eibTZAxrTXBx98cGVgI8qL36qHHnpo8573vGfqCORNN9208ptXgFz2nmf/hxBYd4CM6abxitHAN7/5zStz0dM9kDfffPPKPWN9883zKzm77777xACZv2+fffaZOC89TT3o29YQQMpYToFFDpCT7ovoTtlZTnl7TYAAAQIEpgusFSBjgCJGCCP05fcUbuQeyPh9+vrXv76dwhq3pMS02AiBEQojqKbbVNa6BzI/P691D2T8Lo6BFlNYp7e/dyy3wIYCZCxuk994fN11160solMyQE6bwrrcTWHvhxRY5AA5adR9yPoriwABAgQILLLAtACZ3y949NFHt4vSbDRARgi94IIL2jLiN2yE0wiP8eoGyO5vzbSuRxo0mXUEctLF4hQyF7lt7BuBaQIbDpDpPq2YyrrnnnuuBEhTWKeR+/s8BATIeSjbBgECBAgQ2JjAtAAZpaYFbCJ0RdDbTICMAY4YdTz77LNXbrWKhSGnBcjYj3z9jlkDZPdicXchyY2p+RSBxRDYcICM3U9XZX7+53++edzjHtdOM4jXVi2isxik9mIRBATIRWgF+0CAAAECBPoFZgmQKbz98z//c/Ptb3975dapSSEufpfm63Dka3TEozXSfY9f+tKX2nsao5xZA2QMlsT01I0GyDTwEnXqrviujxBYNoFNBciobByc3SWXPcZj2bpBffsrQNbXpmpEgAABAvUIzBog8+cnp8fITXocRn7fZNzr2F3xND3/OZUzS4DshtKNBsh84KX7mLt6WlVNxiKw6QA56YpK+vcbbrhhxbL78NRJD1XvLozTV1beQKlcSyOPpdtOr+dWB8i836e9jRNW9O1J90XE+2KazgknnLDmKP702nsHAQIECBBYbIFZA2TUIi1ckz+HfJbfmd3fhXlgjMUX+wLkpPN3rOSa70uf7l577dU+U3qtRSJTXdwLudj9096tLTBzgARJYJkE1hsgl6lu9pUAAQIECCy7gPP0sreg/R+zgAA55tavuO5OTBU3rqoRIECAwNILOE8vfROqwIgFBMgRN37NVXdiqrl11Y0AAQIEll3AeXrZW9D+j1lAgBxz61dcdyemihtX1QgQIEBg6QWcp5e+CVVgxAIC5Igbv+aqOzHV3LrqRoAAAQLLLuA8vewtaP/HLCBAjrn1K667E1PFjatqBAgQILD0As7TS9+EKjBiAQFyxI1fc9WdmGpuXXUjQIAAgWUXcJ5e9ha0/2MWECDH3PoV192JqeLGVTUCBAgQWHoB5+mlb0IVGLGAADnixq+56k5MW9e6r3jFK5rLL7+8yR/4vHV7U8+W44HYZ555ZnPSSSc1Z599dnPEEUc0t99++0Tn/CHbRx11VHPllVc2P/VTP1UPiJoQILDUAs7TS918dn7kAgLkyDtArdV3Ytq6lhUgy9ivN0B+6lOfao455pjmv//7v5vHPvaxzdVXX90861nPKrNzSiVAgMA6BZyn1wnm7QQWSECAXKDGsCvDCTgxDWc5raT//d//bT7ykY8011xzTXPnnXc2995778pH9tlnn+aAAw5oXvrSlzYHHXRQ86MvnGlF+nuPQB4gX/va1zZHHnlkc9ttt00cgTzjjDOa97///c2xxx7bXHHFFW0bRBnaQPciQGARBJynF6EV7AOBjQkIkBtz86kFF3Bimk8D3XHHHc1pp53WfPrTn2722GOP5ld/9Veb+++/v/nsZz/bHH744c13vvOd5vOf/3zzwx/+sPmDP/iD5s1vfnOzyy67zGfnKtvKBz/4wdbwNa95TXPeeec1xx13XPPFL36xDe4R0vNXtMELX/jC5sd+7Meaiy66qHn1q1/dPPLII8373ve+5klPelJlMqpDgMAyCjhPL2Or2WcC/7+AAKknVCngxFS+Wb/2ta+thJiTTz65Oeecc5qddtqp6U5h/fd///c28Fx77bXNi170onY0LKZUxghZhJvLLrusva+v+7rkkkuaU089tXn729/enHLKKW25N910U29gSqNzEVCj3Hj1vf+v//qvmxi9i2mdEbx233339l7CeMU9mxGC81dfGWlb3Xs8t23b1vzpn/5p+3+HHXZYc9VVVzU777xzW1wYvO1tb2tuuOGGVSO0aVvd9/e13mc+85l2SmpYRCAMm3/8x3/s3e+wjn0P19jf173udc2f/dmftdYvfvGLeztHjByn+yr73vCMZzxj1bZSO8d7c/f8s8mq+55JbRmj2fG397znPe2+x/7GK0ZaX/KSlzSHHHLIyr+l7aT9zttwrffffPPNzfHHH9/8xE/8xHZ9KbXTRz/60Sb6d/SH5z73ue09p7/wC7+wsh933333xANsr732Wik36vK5z32u7QsxGhwB/p577mme/vSntyPDsR/5fanr7VupnieeeGLzK7/yK2073HLLLc2OO+7Y/PZv/3Z7z+xTn/rU7fa1r56/+Zu/2R473ffn7ZwXtN9++zW///u/3/bFvA5xoSLut73uuuuaf/3Xf23iXtxw7Ct/ve2a2nq33XZbdXzFfv3bv/1b+/3yhS98YbtR+dinuAAT/Sr+/uM//uPtxa7TTz+9OfTQQ43Klz9d9G7BeXqL4G2WwAACAuQAiIpYPAEnprJt8oMf/KD98RUhL8JjhJOf/MmfbDfadw/kt771rXYKZfy4TSEmfqRHIIpQ8O53v7sNlekVP/jix/VXv/rV9ofok5/85E0HyG984xttePr2t7/dHHzwwU386H70ox89WICMH6ZRn3/5l39ZFSC//vWvt3WPUdoDDzywedrTntb+gI1X7Es4xPTePHD2tV6UE4vhRAD+vd/7vTaQRpndz0XbvPKVr2xuvPHGlfse0/2Qv/7rvz5xMZ304zxMYh/T63/+53+av/u7v2ue8IQnbBcgI6hGEIt7K7v7kS/iM2uA/Nu//dvmZS97WfPggw8WCZDRr6Ld3/ve9zZ50Iv9i775h3/4h819993X1n/fffdt+1+EnLjQ8K53vas1iP8fQTdeX/7yl1vnCCF77713+29xHEQ5v/iLv9j22Qj+v/RLv9R87GMfa0Pdrrvu2nziE59ovvKVr7QjypdeeunKqPykADmpb6UA9mu/9mvtSH+0xW/8xm800dc//vGPNz/90z/dvPWtb237TXpFf/ujP/qjtp4xch379p//+Z/tPj3mMY9p/vzP/7zdr/SKOvzVX/1V87u/+7ttefF66KGHmuhT0WcipF544YVtCIt/P+GEE9p+kvp6vP9LX/pSG9zCMfpJ7G+8hgqQcfHmrLPOagN0vPKLO7FPMWof4XHPPfdsfuu3fqt9zyc/+ckmvpfi4kp8l5naXfac0Ve68/T8zW2RwFACAuRQkspZKAEnprLNEVMk4x68+OEZi7M8+9nPXvWDs28V1vTjOH5gxt//67/+qw10//Ef/9H+oI9RmfRKPyzjB/c73vGO5lGPetSmA2SEnRhheec739k873nP+//aO/dQK6r3D6/IrmpmaKKFGkRRqV2JbhqWlBZl2k3N7jeoQNNKja6KmkEXi4ruWZDZRZCE/kiwMC00SKzMbiglmmUXTDLS8Mezfr3nu86c2fvsvWdmz+x9PgMH65y9ZtY879qz1mfed72vv1Sc9yokV6kHEkHBohwxwBF6FLlXzhMV2uECeuDAge0KyEotipDAE4MAssyrJsgJLS6VTAeBikcJ8WBe3HKMjM2AAQO8tw4b4pWK2pDvIn9vzzvMQp+XBosWLfKnyMIDiQdwwoQJbuvWra0EJNfGwwm7mTNnes+6PUPwkuNVJiQbW4YvOuI839HxQxvEJS9ZEGEcv/zyi78/xCdcYMkRJyDLjS37nuAR5XtFe6IAEFR4PBFGCETGfp8+fZy9zEAYc19jx45tEU4mLDt16uTHiL1EKOUtNo8f17KXPBY1QFg792UvlfgM/4/IIxoBnuH4r9SzXMoDuWzZMm8z8wyHAtKYjhw50r/wQsRyWAQF/7744ovuvPPOq/Qrps+lREDzdEogdRoRyIGABGQO0HXJ7AloYsqWsS1cDzzwQO+d6N+/f8sFS2VhXbhwoff2heJqxowZfkFpYap2EhZ906dP96LKQkyThLCSzIeQQbxzhK7aPsy0BCSeMxbwCFPCbENBSKgpC9cFCxa08gRlJSBtER8NDUYU4AlFVMQl0wnDIasRkHg7ESN4RsNQZGyLzfGI8RKgPQFJfxFviNi5c+emLiDNA43A2rFjhxcbtn/UvOEIPDyMJnywEWITYbtr1y5/H4SyhuMUD1ypEF77LjCW77333lZfSvMK8+LEvLdxArLc2Aq/h9H9reaJRtzZ98heZhAGjc14MRMe9n0MRV6p7515mEmcBUfGPGNr5cqV/kVKdF+uff+TvBiIE5DmVca+fK8RjyYgbS8wwjnuxcm7777rbcszyV5UZfvk1NlDApqnNR5EoHEJSEA2ru3U8zIENDFlOzxInoOXiyPqeSolIC0JDIKQcLKuXbv6MDjCPsPQSluY4hViUcx+J45aBSSLZ8SCeT/M28M50xCQ1l9CPVmY4+EKBSShpngn40SGCYC0PJDmSduyZUubhDl4nUiswxGXTMf2WM6ePbuV0C3FyOzB/eFd4yUC+1sRJdaPgw8+2CftYQ9hOQHJvkDGAZ9lz+GYMWNSF5CIM8T1E0884QWVCR+Ejgk37oM9fZUelXggLZQYIR0eCFM88NjKPHhRAdne2LLxQ0g24jAahmkvDUwQlnuZQd9sDOB9tO9oqe8dNUgRX3hk+W7369ev5fZImsV9Ec797bff+qRa/ODtS1tAcm2+c4TRco0w+oEwXsbViSee6ObNm+d44RUe5nVnzL711lstz5pK7a/PJSOgeToZP7UWgTwJSEDmSV/XzoyAJqbM0PoTm0BgD140MUucgCSEzZLmhN4NWyCzl8zCWE1U4jG0UDcTkCwOyx1RkRJ+HmFEH2z/YVoC0jxneM0IEyQUMhSEtshnf9qsWbO8QLIwyLQFpC2Y8byUO+ISF+EhYn8gosNCLcsxCoUFbZcsWdIihMyGeLQQElEvXdiWlweIexIcIezoOy8Z4oRGueQ1YZKf6N4620M4bNgwn+yJPYqhgKy1dmklAhKhFfXSwzXqwQuFrHnQKh1bN9xwg2cYPUKvHx5HPkfiJWwcFbS0ZV8m4p29noS99ujRw7+4ie6B3L59u99DSBg631EEHAfhtnjy+OGlgB0k0endu7f3Tiaxa9QDifcREU4/8RzDIBSQdv8kGIJvVGDjVeYZhkc6Lptxtk9RnV3ztMaACDQuAQnIxrWdel6GgCam7IcHi1vL8oi34vDDD/cXjVuMW4IS/h4m0eD/o9lWER0k1YmGnMUtZO0uLZlJVEDi/WGBSwITBE40QUhSDyQZK81zBg/20EUFJOKZeyZZR1gjM7RQJVlY27OoiXS8gIRZhmGY1pYFPhk42e9l+yPtb3hwEA1Rj3J7HkgW3njTbA8eC3psyF5GPJ38W05Acn2Y0Q5G1BQtJSB79uzps2eGR1ySn1BAIuwJrcS7xr0h8nk5US8BSRbWuAy/7QnISsZWqbBj41OrgOzbt2+Lx65UFlauQUIg9jviYceLZ4lsEPOjR4/2yaFIJoQnOg27RgUk+5l5fjCW8cJGnz12/+19d6IJldr7vP6eDgHN0+lw1FlEIA8CEpB5UNc1MyegiSlzxN7bgDAgJJDFLotIsoOaFwCvBQtJhCALvZ07d/p9YCSTCQ8Lhz3mmGN8xkg8FCxGo1k9aw1hReAQXodA2bx5cysBm0RAcn+IEPY2migu51Ek4RAeID5j2S+rycLankVJRmTZNqMhhdaW7KYkTsE7FAp09svhfYSPeZ6sTSUCElHGtfH0IAIR1Xid8EQh4EoJSJKXEFqIZ5F/CYNNY69cKCDZU4m4Za8mYzROuCGep02b5kNx0w5hLVV6xmxBrdRoCGulY6tcFlPsZ3seKw1hNQ82XuH2QlgJicaulEXh5QnfdbyXhK9yP+w7Do807BoKSOzFs4IMwHPmzGlJtBUXwnr++efHhvi2953S37MloHk6W746uwhkSUACMku6OnduBDQx1Qd9qZC16NVJ6c8iNq7mmokXQv3wFJFIZeLEiX4/YXgkEZAINkQVIoJENyx48dAlEZAIJcSWec4Yc6UEpJU3wBMalg1IM4TVaj8i3vDKlCpLwPVJ6hIm07H9kWS9JSwzPCoRkAgO7MWeN+w0ZcoUb0fYlKvRieBARCLgSPDDkYbQMK7YnXBLvJQIVDxhcQLSkqnEJdFhfCJUyDqKwAyTw1QSwoqgiSaJ4j4tzJdQUitjY+erdGzZfbJPONwvzPktiQ61Ry0sudIkOpS9sHFQ7ntn+5rhw7iLet9tHIUh7GnsgSTEFm/06tWrvVeZTLMcUQ+kvVShNE2UT32ekLpKOQKapzU+RKBxCUhANq7t1PMyBDQx1Xd4ICRJpb9ixQpf15BkFpT5wDtAGBulHsK9h9HemfihPhz7qswjk6aANOFA3yxtfxIByb4r6lOyOKe+HEecIGQhj6AifJbEQ4SYWuH1tATkX3/95b2bCKEwc23cKDDhwgLckukgOAn1JRTQSpxY20oEJKLKyqSQCAfBZl7QUgKyVA3JNAUkwp0XBXhBzTsbJyCtTimCJFreAgHGHj/GcJjBFz6VCkj48NLCypxYGQ/23+Gltb7Z+SodWzZ+bJ8pHkHuNyzjgbg3b34lZTy4rzDMvJSA5BqMGX54OUSCJl4I/Pnnn957OXjwYD+Ewr4kre9pY5FkPEQ0cN0wY3BUQIZ95AUHLyrsu2f9ghlh0Xwv+U7oqB8BzdP1Y60riUDaBCQg0yaq8xWCgCam/MxQS0IS84CxXwwhFJdSP6kHEiJWqN4W1du2bfP77ViADx8+3OGpCA+SfrBYxTNFKCQhurbI79Kli/f0meeslIBk/xuLV0RBWF+v1OdrsZzVfqRERanwVTuvJUCCBQtqQigXL17sYBHHwPYY0p5aemTyZF9b1B6WgAURRpiyeUFLCUi8Yey1s/1r1r80BSShsdQHNI8z14gTkPze9ulu3LixJcSYsOOlS5f6BDAkaeFlSHhUIiAJRyX7J55QkvgQnm1F7Bnr2MD2q1Y7tkxA0icSyvAigwyqfJ/4m2XGJQLADqv3GHef++23X6s6mLSJ23tMmOqaNWscyYmoq4jg5Lr2ooS9kdxrt27d/Ge+/PJLHzrNfVMT0wRtuRDcuBcX9juiFRir5lW2e4t79jDeGY+EmnNtWHCf1v/u3bv70HkT8bV8/9SmNgKap2vjplYiUAQCEpApW8EWciT1iAtbil6OhBakwectN5MjExwLWsLLmNh01EZAE1Nt3NJoVYuAxBuAyEJglfKgpSEgrWYcoaSIVDxDfN9YkLZ3WIIeW+THJb6JehTxNCFgEFVRsZmmgLT6faXEd/Te7PNkhKWPPLcqOcJkI1F7WCgyYjT0ZJYTkHH1CNMUkNxTNLtmKQHJZ6PPY/ZxIoTwUvFsjh6VCEj2QDLW2F84f/58x75XxBb8EC2hZ76asYU4s/FGH0eNGuX3AjKWmTsYn+znDOtWWv/tPhGTvCDhPvEY4s1jP3N4lEqig0gk5NkSaZmIRazj4WcOtM9wDrz1hLmGZUtqFZD0P/TclhOQ1i/GJF7vtWvXejFP0i9C6gmpJWuyjvoT0Dxdf+a6ogikRUACMi2S/52HBQALTd5wMilFQ57Cy+HdYE8WEy0LWUK/eFtLGCCLWhKPWMHzlLvZ9KfTxNRYJrb9WnhOirZXqb1Ml41FunVvzaNDnTwW/uUOnm2E+ancQeUWL/fSo/KzlP5ke0l00riGziECWRHQPJ0VWZ1XBLInIAGZImMLDWNvBm908XLgUTnrrLPaXMU8IWSwC/fchJkt42q1pdjdpj6VJqbGMi/fFTJl4kEjU2uRDgnI/7eGBGT1o1ICsnpmatFxCGie7ji21p02HwEJyBRtapn8qDE2ZMgQd9111/n9USy8ohkRCR0inCfu77ZgJbyMEgnlko+k2P2mOpUmpuKbk4LxlI7YtGmTLytBghEr5VCk3ktASkDWOh4lIGslp3YdgYDm6Y5gZd1jsxKQgEzJspamnAUwey2oiUXSADLSWabD8FIkTmBPVCkPZUrd6rCn0cRUfNPz3SC5BfuSeOHCi5Zokfji34V6KAKlCUhAanSIQGkCmqc1OkSgcQlIQKZkO8si2bVrV58ogeQBlqgimkwHscnGfTJOUsOKJAukPSeRhZLopGMQTUzpcNRZREAEREAERCALApqns6Cqc4pAfQhIQKbE2Qo0U6Db9nBZvbVo/TDLAkiKeQogUwuM1OIUuV6+fLn7/PPPlUQnoV00MSUEqOYiIAIiIAIikCEBzdMZwtWpRSBjAhKQKQAmIQ77HSlQTkgqxdM57Pekbw/T2puApHQHHsewvhhtpk6d6sNbQzGaQjc71Ck0MXUoc+tmRUAEREAEGoyA5ukGM5i6KwIBAQnIFIaDeRpPOOGElgLJdlqEIIW3w/psoYCMqxVpBbl79erl94dRgFxHdQQ0MVXHS58WAREQAREQgXoS0DxdT9q6lgikS0ACMgWe999/v/cWljvwNLLfEZFJ8hCKiyM88ViOGDGiVVMTmGSpfOedd3xJEB3VEdDEVB0vfVoEREAEREAE6klA83Q9aetaIpAuAQnIhDwReePGjXMbNmxww4cPd/vuu2+bM3722Wdu2bJlrUJS8Uq+8sorXlReeOGFrdr88ccfvrzH5s2bJSBrtI8mphrBqZkIiIAIiIAI1IGA5uk6QNYlRCAjAhKQCcESYkqq9jFjxrinnnrK7b333m3OaPUhjz76aF/S45BDDvGeR0Ti5MmT29SJJBvrFVdc4fdHIjK7deuWsJcdr7kmpo5nc92xCIiACIhA4xDQPN04tlJPRSBKQAIywZj4559/3K233ureeOMN98wzz7jx48fHnu23335zV155pc+2ap+jcPpVV13lfv31V/foo4+2hLFaEh2E48MPP+zFqY7qCWhiqp6ZWoiACFRP4OOPP/bP94MOOshHjMyaNcuRlZtSTTzvdYiACMQT0DytkSECjUtAAjKB7cxTSPkN8yyWOh1F0u+66y43duxY98ILL7j999/fkYX1jjvucFu3bnVDhw71tSOtjAceTRYh8j7WZiBNTLVxUysREIHqCEhAVsdLnxYBI6B5WmNBBBqXgARkAtuZKEQE8t/lDhObfMaS6fDfq1ev9m3ZI/njjz/6JDvXXHONLwvSuXPnBL3r2E01MXVs++vuRaBeBKICksgRsm/LA1kvC+g6jUpA83SjWk79FgHnJCA1CpqSgCampjSrbkoECkeABGqXXHKJ69q1q5s/f77/mTRpkt+CcOeddxauv+qQCBSFgObpolhC/RCBzTfyNQAAC6BJREFU6glIQFbPTC0agIAmpgYwkrpYdwLr1693jz32mHvvvffcd99950sEnXvuue7uu+92hx12mO8PkRAXX3yxT/YVTeL11Vdf+QRfZJZmv9/o0aNb7oH92y+99JKvXbt27Vq35557upNPPtknCjvnnHPctm3bfHQFofvljlB40Zenn37at1m3bl1sf+1c7Bcn7J+jlHizqJHoZ+z3lYg+u47dv2XN3muvvdzLL7/sli5d6hnNmzevFZ+6G1sXFIGCE9A8XXADqXsiUIaABKSGR1MS0MTUlGbVTSUg8NFHH7kbb7zRbdy40R1//PFu0KBB7ptvvnGEYB566KHu+eefd2eccUZJAbl79243depUL844QgFJorCbbrrJ/47s0aeddpojydiSJUvc9u3bHbVyEV4klUEUcvz+++9eyLL3e8iQIa5Tp07+92effbYvbbRy5UqfpOzTTz/156PPlE1CoPXu3bulv6GARLwi5M4888w24tfq65qADcViEgEJF8JVycD95JNPulWrVrnbbrvNPf744+7UU09NYDE1FYHmJqB5urntq7trbgISkM1t3w57d5qYOqzpdeMxBCwTNHuxZ86c6a699lq/fwHx88gjj7gHH3zQjRo1ynvwyAwd54Fknzbtvv/++zYCcsaMGe6+++7zIhIxdsABB/jPmGjdZ5993GuvveYGDhzY0jvbO8jvop5OE3sIUJKP8cM5OBYsWOAmTpzojjrqKO/t7NOnj/89AvX99993AwYM8N5V9pofe+yxba7HffP3tASkBpwIiEBtBDRP18ZNrUSgCAQkIItgBfUhdQKamFJHqhM2MAE8fZQNGjFihPfcmRjjlsgCTdKuXbt2+Vq2eAKjApLw1Jtvvtlt2rSppVyFeSB/+uknn10a4UlJI+rdhscDDzzgFi5c6L2QnNeOcgLSaucSAovwpESGHYhe9hY+++yzrconmYDEa4kovueee7xn0A5ELv04/fTT/X1KQDbwgFbXm4KA5ummMKNuooMSkIDsoIZv9tvWxNTsFtb9VUPAQjSpOXv77beXbRq3B/LNN990EyZMcA899JD75JNPvKfSBKQJweOOO87vASSZTCVHOQGJ2Jw+fbqbPXu2D5uNHvTn8ssv96GihI1ymIBkjyf32b9/fy8yCS01Dywll4444gi/51MCshIr6TMikB0BzdPZsdWZRSBrAhKQWRPW+XMhoIkpF+y6aEEJRBO/lOtmVEDifRw/frzr0aOH914i6EIBiVcPz2K1ZSvKCUjr70UXXeT69u3bpru2f5I9mxb+agISjyV9IvwVj+iRRx7pPvzwQ++BxQu5ZcsWHxIbJyCjFyIElj2ZCFVLMlQNy4IOB3VLBApBQPN0IcygTohATQQkIGvCpkZFJ6CJqegWUv/qSaAa0RMVkM8995yva0iGVcRU9FxZCsj2GCEw4wQkYbm2HxPxi3BctGiRe/311/2/pQQk2WJJAsTx77//ujVr1viMs2GSoWpYttd//V0EOjIBzdMd2fq690YnIAHZ6BZU/2MJaGLSwBCB/xEg9HTatGk+tLOaEFba4Fkkq+mcOXN8OGhUQC1fvtx798iSmnYIKwlzLrvssopMGXogSaxDu5NOOsnvvaR/lCxh7+PcuXNLCshoGY8wydCYMWN8e0J5Qw9sRZ3Th0RABNoQ0DytQSECjUtAArJxbaeelyGgiUnDQwT+R8CS0sQl0aHcBiKRGo8ITLxthKT26tXL9ezZ061evdpnNCXrKUdUQFJaY9y4cb4sR1wSnVdffdV7AGk3adKklk6VC2FlfyU1I0ncw/7N/yaqsiYNBeQpp5ziw06/+OILf90pU6b47LN4I+NKdpQr4xHtZzSEV+NMBESgNgKap2vjplYiUAQCEpBFsIL6kDoBTUypI9UJG5jAzz//7K6++movBslQStZUE2XURcSrRvkL9g+y5xEBSamLnTt3+vIcZD21Iyog8dJRBoQfRBvezs6dO/uPb9iwwdeepN4kQhJPph3lBGS5/tI/RNzbb7/t60SSbdWELWU8uAfqL1Lig36TNOfvv/92JN7p169fVQJSHsgGHvTqeuEJaJ4uvInUQREoSUACUoOjKQloYmpKs+qmEhCwmowbN270AguP4g8//OCWLl3qevfu7RPkkJTG9kCuWrXKDR8+3M2bN8+RvbSUgOT3ZDllzyGeQ+o6UioDz+YHH3zgEIOEkU6ePLmVJ7GcgOScK1as8B5IRCjhsYMGDXI7duzwv1+3bp0bOnSoY3/m4YcfHisgv/76a0fYKaL5lltu8fs4eS6U80CGeyDpP3Uz165dqz2QCcadmopAKQKapzU2RKBxCUhANq7t1PMyBDQxaXiIQFsC69evd5S5wOuIUGRf4LBhw/yeQEseYwKSz7LnL7oHsVQSGTyDJNohqQ3Cq1u3bo46joi3kSNHtglDbU9A0nvrL3Us8Yh26dLF15m89NJL3fXXX++6d+/eStiGHkgEIAJ08eLFvl8XXHCB/2w5ARklBp/Bgwd7TyZlSjiUREffLBFIh4Dm6XQ46iwikAcBCcg8qOuamRPQxJQ5Yl1ABERABERABGomoHm6ZnRqKAK5E5CAzN0E6kAWBDQxZUFV5xQBERABERCBdAhonk6Ho84iAnkQkIDMg7qumTkBTUyZI9YFREAEREAERKBmApqna0anhiKQOwEJyNxNoA5kQUATUxZUdU4REAEREAERSIeA5ul0OOosIpAHAQnIPKjrmpkT0MSUOWJdQAREQAREQARqJqB5umZ0aigCuROQgMzdBOpAFgQ0MWVBVecUAREQAREQgXQIaJ5Oh6POIgJ5EJCAzIO6rpk5AU1MmSPWBURABERABESgZgKap2tGp4YikDsBCcjcTaAOZEFAE1MWVHVOERABERABEUiHgObpdDjqLCKQBwEJyDyo65qZE9DElDliXUAEREAEREAEaiagebpmdGooArkTkIDM3QTqQBYENDFlQVXnFAEREAEREIF0CGieToejzlIbgf8EUG2N1coI7LGHc2737t27hUQEmoKAJqamMKNuQgREQAREoEkJaJ5uUsM2yG1p/CUzlDyQyfipdUEJ6MFQUMOoWyIgAiIgAiLgnNM8rWGQJwGNv2T0JSCT8VPrghLQg6GghlG3REAEREAEREACUmMgZwJaJyYzgARkMn5qXVACejAU1DDqlgiIgAiIgAhIQGoM5ExA68RkBpCATMZPrQtKQA+GghpG3RIBERABERABCUiNgZwJaJ2YzAASkMn4qXVBCejBUFDDqFsiIAIiIAIiIAGpMZAzAa0TkxlAAjIZP7UuKAE9GApqGHVLBERABERABCQgNQZyJqB1YjIDSEAm46fWBSWgB0NBDaNuiYAIiIAIiIAEpMZAzgS0TkxmAAnIZPzUuqAE9GAoqGHULREQAREQARGQgNQYyJmA1onJDCABmYyfWheUgB4MBTWMuiUCIiACIiACEpAaAzkT0DoxmQEkIJPxU+uCEtCDoaCGUbdEQAREQAREQAJSYyBnAlonJjOABGQyfmpdUAJ6MBTUMOqWCIiACIiACEhAagzkTEDrxGQGkIBMxk+tC0pAD4aCGkbdEgEREAEREAEJSI2BnAlonZjMABKQyfipdUEJ6MFQUMOoWyIgAiIgAiIgAakxkDMBrROTGUACMhk/tS4oAT0YCmoYdUsEREAEREAEJCA1BnImoHViMgNIQCbjp9YFJaAHQ0ENo26JgAiIgAiIgASkxkDOBLROTGYACchk/NS6oAT0YCioYdQtERABERABEZCA1BjImYDWickMIAGZjJ9aF5SAHgwFNYy6JQIiIAIiIAISkBoDORPQOjGZASQgk/FT64IS0IOhoIZRt0RABERABERAAlJjIGcCWicmM0ArAZnsVGotAiIgAiIgAiIgAiIgAiIgAiLQAQjssUcHuEndogiIgAiIgAiIgAiIgAiIgAiIQAoE/g9REb5rdCeipwAAAABJRU5ErkJggg==;movable=0;resizable=0;rotatable=0;deletable=0;editable=0;locked=1;connectable=0;" parent="1" vertex="1">
          <mxGeometry x="390" y="440" width="1240" height="920.5" as="geometry" />
        </mxCell>
        <mxCell id="0foSG4I520p3zmjoovhV-5" style="edgeStyle=orthogonalEdgeStyle;rounded=0;orthogonalLoop=1;jettySize=auto;html=1;exitX=0;exitY=0.25;exitDx=0;exitDy=0;entryX=0;entryY=0.25;entryDx=0;entryDy=0;" parent="1" target="0foSG4I520p3zmjoovhV-1" edge="1">
          <mxGeometry relative="1" as="geometry">
            <mxPoint x="410" y="718.7692307692307" as="sourcePoint" />
          </mxGeometry>
        </mxCell>
        <mxCell id="WYAKC0gn2XXZuo2VXs9e-6" style="edgeStyle=orthogonalEdgeStyle;rounded=0;orthogonalLoop=1;jettySize=auto;html=1;exitX=1;exitY=0.25;exitDx=0;exitDy=0;entryX=0;entryY=0.25;entryDx=0;entryDy=0;" parent="1" source="0foSG4I520p3zmjoovhV-1" target="0foSG4I520p3zmjoovhV-4" edge="1">
          <mxGeometry relative="1" as="geometry">
            <Array as="points">
              <mxPoint x="720" y="711" />
              <mxPoint x="995" y="711" />
            </Array>
          </mxGeometry>
        </mxCell>
        <mxCell id="0foSG4I520p3zmjoovhV-1" value="&lt;span style=&quot;font-size: 14px;&quot;&gt;Журналирование&amp;nbsp;&lt;br&gt;бронирований&lt;/span&gt;" style="html=1;align=center;verticalAlign=top;rounded=1;absoluteArcSize=1;arcSize=10;dashed=0;whiteSpace=wrap;" parent="1" vertex="1">
          <mxGeometry x="540" y="704" width="180" height="60" as="geometry" />
        </mxCell>
        <mxCell id="0foSG4I520p3zmjoovhV-24" style="edgeStyle=orthogonalEdgeStyle;rounded=0;orthogonalLoop=1;jettySize=auto;html=1;entryX=0;entryY=0.25;entryDx=0;entryDy=0;" parent="1" target="0foSG4I520p3zmjoovhV-2" edge="1">
          <mxGeometry relative="1" as="geometry">
            <mxPoint x="580" y="824" as="sourcePoint" />
          </mxGeometry>
        </mxCell>
        <mxCell id="WYAKC0gn2XXZuo2VXs9e-3" style="edgeStyle=orthogonalEdgeStyle;rounded=0;orthogonalLoop=1;jettySize=auto;html=1;exitX=0.25;exitY=1;exitDx=0;exitDy=0;entryX=0.25;entryY=1;entryDx=0;entryDy=0;" parent="1" target="0foSG4I520p3zmjoovhV-2" edge="1">
          <mxGeometry relative="1" as="geometry">
            <mxPoint x="740" y="1099.9999999999998" as="sourcePoint" />
          </mxGeometry>
        </mxCell>
        <mxCell id="0foSG4I520p3zmjoovhV-2" value="&lt;span style=&quot;font-size: 14px;&quot;&gt;Журналирование выполненных задач поваров&amp;nbsp;и горничных&lt;/span&gt;" style="html=1;align=center;verticalAlign=top;rounded=1;absoluteArcSize=1;arcSize=10;dashed=0;whiteSpace=wrap;" parent="1" vertex="1">
          <mxGeometry x="690" y="804" width="200" height="80" as="geometry" />
        </mxCell>
        <mxCell id="0foSG4I520p3zmjoovhV-28" style="edgeStyle=orthogonalEdgeStyle;rounded=0;orthogonalLoop=1;jettySize=auto;html=1;entryX=0;entryY=0.25;entryDx=0;entryDy=0;" parent="1" target="0foSG4I520p3zmjoovhV-3" edge="1">
          <mxGeometry relative="1" as="geometry">
            <mxPoint x="760" y="929" as="sourcePoint" />
          </mxGeometry>
        </mxCell>
        <mxCell id="WYAKC0gn2XXZuo2VXs9e-4" style="edgeStyle=orthogonalEdgeStyle;rounded=0;orthogonalLoop=1;jettySize=auto;html=1;exitX=0.5;exitY=1;exitDx=0;exitDy=0;entryX=0.5;entryY=1;entryDx=0;entryDy=0;" parent="1" target="0foSG4I520p3zmjoovhV-3" edge="1">
          <mxGeometry relative="1" as="geometry">
            <mxPoint x="980" y="1099.9999999999998" as="sourcePoint" />
          </mxGeometry>
        </mxCell>
        <mxCell id="0foSG4I520p3zmjoovhV-3" value="&lt;span style=&quot;font-size: 14px;&quot;&gt;Журналирование заказов расходных материалов&lt;br&gt;&lt;/span&gt;" style="html=1;align=center;verticalAlign=top;rounded=1;absoluteArcSize=1;arcSize=10;dashed=0;whiteSpace=wrap;" parent="1" vertex="1">
          <mxGeometry x="890" y="914" width="180" height="60" as="geometry" />
        </mxCell>
        <mxCell id="WYAKC0gn2XXZuo2VXs9e-21" style="edgeStyle=orthogonalEdgeStyle;rounded=0;orthogonalLoop=1;jettySize=auto;html=1;exitX=0.75;exitY=1;exitDx=0;exitDy=0;entryX=0.75;entryY=1;entryDx=0;entryDy=0;" parent="1" target="0foSG4I520p3zmjoovhV-4" edge="1">
          <mxGeometry relative="1" as="geometry">
            <mxPoint x="1427.8333333333335" y="960" as="sourcePoint" />
          </mxGeometry>
        </mxCell>
        <mxCell id="WYAKC0gn2XXZuo2VXs9e-23" style="edgeStyle=orthogonalEdgeStyle;rounded=0;orthogonalLoop=1;jettySize=auto;html=1;exitX=1;exitY=0.5;exitDx=0;exitDy=0;" parent="1" source="0foSG4I520p3zmjoovhV-4" edge="1">
          <mxGeometry relative="1" as="geometry">
            <mxPoint x="1610" y="734.1666666666667" as="targetPoint" />
          </mxGeometry>
        </mxCell>
        <mxCell id="0foSG4I520p3zmjoovhV-4" value="&lt;span style=&quot;font-size: 14px;&quot;&gt;&lt;br&gt;Экспорт системного&amp;nbsp;журнала&lt;/span&gt;" style="html=1;align=center;verticalAlign=top;rounded=1;absoluteArcSize=1;arcSize=10;dashed=0;whiteSpace=wrap;" parent="1" vertex="1">
          <mxGeometry x="1270" y="687.25" width="210" height="93.5" as="geometry" />
        </mxCell>
        <mxCell id="0foSG4I520p3zmjoovhV-6" value="&lt;font style=&quot;font-size: 10px;&quot;&gt;Отчет о&lt;br&gt;бронированиях&lt;br&gt;&lt;/font&gt;" style="text;html=1;strokeColor=none;fillColor=none;align=center;verticalAlign=middle;whiteSpace=wrap;rounded=0;rotation=0;" parent="1" vertex="1">
          <mxGeometry x="420" y="709" width="110" height="15" as="geometry" />
        </mxCell>
        <mxCell id="0foSG4I520p3zmjoovhV-17" value="&lt;font style=&quot;font-size: 10px;&quot;&gt;Журнал бронирований&lt;br&gt;&lt;/font&gt;" style="text;html=1;strokeColor=none;fillColor=none;align=center;verticalAlign=middle;whiteSpace=wrap;rounded=0;rotation=0;" parent="1" vertex="1">
          <mxGeometry x="800" y="694" width="110" height="15" as="geometry" />
        </mxCell>
        <mxCell id="0foSG4I520p3zmjoovhV-19" value="&lt;font style=&quot;font-size: 10px;&quot;&gt;Журнал выполнения задач персонала&lt;br&gt;&lt;/font&gt;" style="text;html=1;strokeColor=none;fillColor=none;align=center;verticalAlign=middle;whiteSpace=wrap;rounded=0;rotation=0;" parent="1" vertex="1">
          <mxGeometry x="920" y="804" width="110" height="15" as="geometry" />
        </mxCell>
        <mxCell id="0foSG4I520p3zmjoovhV-23" value="&lt;font style=&quot;font-size: 10px;&quot;&gt;Журнал заказов расходных материалов&lt;br&gt;&lt;/font&gt;" style="text;html=1;strokeColor=none;fillColor=none;align=center;verticalAlign=middle;whiteSpace=wrap;rounded=0;rotation=-90;" parent="1" vertex="1">
          <mxGeometry x="1107" y="826.5" width="120" height="20" as="geometry" />
        </mxCell>
        <mxCell id="0foSG4I520p3zmjoovhV-26" value="&lt;font style=&quot;font-size: 10px;&quot;&gt;Отчет о выполнении&lt;br&gt;задач персоналом&lt;br&gt;&lt;/font&gt;" style="text;html=1;strokeColor=none;fillColor=none;align=center;verticalAlign=middle;whiteSpace=wrap;rounded=0;rotation=0;" parent="1" vertex="1">
          <mxGeometry x="575" y="811.5" width="110" height="15" as="geometry" />
        </mxCell>
        <mxCell id="0foSG4I520p3zmjoovhV-29" value="&lt;font style=&quot;font-size: 10px;&quot;&gt;Данные о заказе расходных материалов&lt;br&gt;&lt;/font&gt;" style="text;html=1;strokeColor=none;fillColor=none;align=center;verticalAlign=middle;whiteSpace=wrap;rounded=0;rotation=0;" parent="1" vertex="1">
          <mxGeometry x="760" y="922" width="120" height="15" as="geometry" />
        </mxCell>
        <mxCell id="0foSG4I520p3zmjoovhV-41" value="61" style="text;html=1;strokeColor=none;fillColor=none;align=center;verticalAlign=middle;whiteSpace=wrap;rounded=0;" parent="1" vertex="1">
          <mxGeometry x="700" y="739" width="10" height="30" as="geometry" />
        </mxCell>
        <mxCell id="0foSG4I520p3zmjoovhV-42" value="63" style="text;html=1;strokeColor=none;fillColor=none;align=center;verticalAlign=middle;whiteSpace=wrap;rounded=0;" parent="1" vertex="1">
          <mxGeometry x="1050" y="950" width="10" height="30" as="geometry" />
        </mxCell>
        <mxCell id="0foSG4I520p3zmjoovhV-43" value="62" style="text;html=1;strokeColor=none;fillColor=none;align=center;verticalAlign=middle;whiteSpace=wrap;rounded=0;" parent="1" vertex="1">
          <mxGeometry x="873.3" y="856.5" width="10" height="30" as="geometry" />
        </mxCell>
        <mxCell id="WYAKC0gn2XXZuo2VXs9e-5" style="edgeStyle=orthogonalEdgeStyle;rounded=0;orthogonalLoop=1;jettySize=auto;html=1;exitX=0.5;exitY=1;exitDx=0;exitDy=0;entryX=0.5;entryY=1;entryDx=0;entryDy=0;" parent="1" target="WYAKC0gn2XXZuo2VXs9e-1" edge="1">
          <mxGeometry relative="1" as="geometry">
            <mxPoint x="1210.344827586207" y="1099.9999999999998" as="sourcePoint" />
          </mxGeometry>
        </mxCell>
        <mxCell id="WYAKC0gn2XXZuo2VXs9e-12" style="edgeStyle=orthogonalEdgeStyle;rounded=0;orthogonalLoop=1;jettySize=auto;html=1;exitX=1;exitY=0.5;exitDx=0;exitDy=0;entryX=0;entryY=0.75;entryDx=0;entryDy=0;" parent="1" source="WYAKC0gn2XXZuo2VXs9e-1" target="0foSG4I520p3zmjoovhV-4" edge="1">
          <mxGeometry relative="1" as="geometry" />
        </mxCell>
        <mxCell id="WYAKC0gn2XXZuo2VXs9e-13" style="edgeStyle=orthogonalEdgeStyle;rounded=0;orthogonalLoop=1;jettySize=auto;html=1;exitX=0;exitY=0.25;exitDx=0;exitDy=0;entryX=0;entryY=0.25;entryDx=0;entryDy=0;" parent="1" target="WYAKC0gn2XXZuo2VXs9e-1" edge="1">
          <mxGeometry relative="1" as="geometry">
            <mxPoint x="1020" y="1005.1379310344828" as="sourcePoint" />
          </mxGeometry>
        </mxCell>
        <mxCell id="WYAKC0gn2XXZuo2VXs9e-1" value="&lt;span style=&quot;font-size: 14px;&quot;&gt;Журналирование работы системы безопасности&lt;br&gt;&lt;/span&gt;" style="html=1;align=center;verticalAlign=top;rounded=1;absoluteArcSize=1;arcSize=10;dashed=0;whiteSpace=wrap;" parent="1" vertex="1">
          <mxGeometry x="1120" y="990" width="180" height="60" as="geometry" />
        </mxCell>
        <mxCell id="WYAKC0gn2XXZuo2VXs9e-2" style="edgeStyle=orthogonalEdgeStyle;rounded=0;orthogonalLoop=1;jettySize=auto;html=1;exitX=0.5;exitY=1;exitDx=0;exitDy=0;entryX=0.08;entryY=0.988;entryDx=0;entryDy=0;entryPerimeter=0;startArrow=classic;startFill=1;" parent="1" source="0foSG4I520p3zmjoovhV-4" target="0foSG4I520p3zmjoovhV-1" edge="1">
          <mxGeometry relative="1" as="geometry">
            <Array as="points">
              <mxPoint x="1375" y="1100" />
              <mxPoint x="554" y="1100" />
            </Array>
          </mxGeometry>
        </mxCell>
        <mxCell id="WYAKC0gn2XXZuo2VXs9e-8" style="edgeStyle=orthogonalEdgeStyle;rounded=0;orthogonalLoop=1;jettySize=auto;html=1;exitX=1;exitY=0.25;exitDx=0;exitDy=0;entryX=0.002;entryY=0.412;entryDx=0;entryDy=0;entryPerimeter=0;" parent="1" source="0foSG4I520p3zmjoovhV-2" target="0foSG4I520p3zmjoovhV-4" edge="1">
          <mxGeometry relative="1" as="geometry" />
        </mxCell>
        <mxCell id="WYAKC0gn2XXZuo2VXs9e-10" style="edgeStyle=orthogonalEdgeStyle;rounded=0;orthogonalLoop=1;jettySize=auto;html=1;exitX=1;exitY=0.25;exitDx=0;exitDy=0;entryX=-0.001;entryY=0.6;entryDx=0;entryDy=0;entryPerimeter=0;" parent="1" source="0foSG4I520p3zmjoovhV-3" target="0foSG4I520p3zmjoovhV-4" edge="1">
          <mxGeometry relative="1" as="geometry" />
        </mxCell>
        <mxCell id="WYAKC0gn2XXZuo2VXs9e-14" value="&lt;font style=&quot;font-size: 10px;&quot;&gt;Данные о работе&lt;br&gt;системы безопасности&lt;br&gt;&lt;/font&gt;" style="text;html=1;strokeColor=none;fillColor=none;align=center;verticalAlign=middle;whiteSpace=wrap;rounded=0;rotation=0;" parent="1" vertex="1">
          <mxGeometry x="1000" y="997" width="120" height="15" as="geometry" />
        </mxCell>
        <mxCell id="WYAKC0gn2XXZuo2VXs9e-15" value="&lt;font style=&quot;font-size: 10px;&quot;&gt;Журнал безопасности&lt;br&gt;&lt;/font&gt;" style="text;html=1;strokeColor=none;fillColor=none;align=center;verticalAlign=middle;whiteSpace=wrap;rounded=0;rotation=-90;" parent="1" vertex="1">
          <mxGeometry x="1250" y="934" width="120" height="20" as="geometry" />
        </mxCell>
        <mxCell id="WYAKC0gn2XXZuo2VXs9e-16" value="65" style="text;html=1;strokeColor=none;fillColor=none;align=center;verticalAlign=middle;whiteSpace=wrap;rounded=0;" parent="1" vertex="1">
          <mxGeometry x="1460" y="750.75" width="10" height="30" as="geometry" />
        </mxCell>
        <mxCell id="0foSG4I520p3zmjoovhV-44" value="64" style="text;html=1;strokeColor=none;fillColor=none;align=center;verticalAlign=middle;whiteSpace=wrap;rounded=0;" parent="1" vertex="1">
          <mxGeometry x="1280" y="1030" width="10" height="30" as="geometry" />
        </mxCell>
        <mxCell id="WYAKC0gn2XXZuo2VXs9e-18" value="&lt;font style=&quot;font-size: 10px;&quot;&gt;Система&lt;br&gt;&lt;/font&gt;" style="text;html=1;strokeColor=none;fillColor=none;align=center;verticalAlign=middle;whiteSpace=wrap;rounded=0;rotation=0;" parent="1" vertex="1">
          <mxGeometry x="823.3" y="1080" width="110" height="15" as="geometry" />
        </mxCell>
        <mxCell id="WYAKC0gn2XXZuo2VXs9e-19" value="" style="endArrow=classic;html=1;rounded=0;" parent="1" edge="1">
          <mxGeometry width="50" height="50" relative="1" as="geometry">
            <mxPoint x="1030" y="690" as="sourcePoint" />
            <mxPoint x="1270" y="693.998695652174" as="targetPoint" />
            <Array as="points" />
          </mxGeometry>
        </mxCell>
        <mxCell id="WYAKC0gn2XXZuo2VXs9e-20" value="&lt;font style=&quot;font-size: 10px;&quot;&gt;Идентификатор системного администратора&lt;br&gt;&lt;/font&gt;" style="text;html=1;strokeColor=none;fillColor=none;align=center;verticalAlign=middle;whiteSpace=wrap;rounded=0;rotation=0;" parent="1" vertex="1">
          <mxGeometry x="1067" y="672.25" width="160" height="15" as="geometry" />
        </mxCell>
        <mxCell id="WYAKC0gn2XXZuo2VXs9e-22" value="&lt;font style=&quot;font-size: 10px;&quot;&gt;Системный&lt;br&gt;администратор&lt;br&gt;&lt;/font&gt;" style="text;html=1;strokeColor=none;fillColor=none;align=center;verticalAlign=middle;whiteSpace=wrap;rounded=0;rotation=-90;" parent="1" vertex="1">
          <mxGeometry x="1367" y="870" width="120" height="20" as="geometry" />
        </mxCell>
        <mxCell id="WYAKC0gn2XXZuo2VXs9e-24" value="&lt;font style=&quot;font-size: 10px;&quot;&gt;Журнал работы системы&lt;br&gt;&lt;/font&gt;" style="text;html=1;strokeColor=none;fillColor=none;align=center;verticalAlign=middle;whiteSpace=wrap;rounded=0;rotation=0;" parent="1" vertex="1">
          <mxGeometry x="1487" y="726.5" width="110" height="15" as="geometry" />
        </mxCell>
      </root>
    </mxGraphModel>
  </diagram>
  <diagram id="30CSTh-y9SVbLgZfz-_A" name="Страница — 2">
    <mxGraphModel dx="5413" dy="2800" grid="1" gridSize="10" guides="1" tooltips="1" connect="1" arrows="1" fold="1" page="1" pageScale="1" pageWidth="3300" pageHeight="2339" math="0" shadow="0">
      <root>
        <mxCell id="0" />
        <mxCell id="1" parent="0" />
      </root>
    </mxGraphModel>
  </diagram>
</mxfile>
